<?xml version="1.0" encoding="utf-8"?>
<!-- Generator: Adobe Illustrator 25.0.0, SVG Export Plug-In . SVG Version: 6.00 Build 0)  -->
<svg version="1.1" xmlns="http://www.w3.org/2000/svg" xmlns:xlink="http://www.w3.org/1999/xlink" x="0px" y="0px" width="1000px"
	 height="650px" viewBox="0 0 1000 650" style="enable-background:new 0 0 1000 650;" xml:space="preserve">
<style type="text/css">
	.st0{fill:#FFFFFF;}
	.st1{fill:none;stroke:#E74C3C;stroke-width:3;stroke-linecap:round;stroke-linejoin:round;}
	.st2{fill:none;stroke:#E74C3C;stroke-width:3;stroke-linecap:round;stroke-linejoin:round;stroke-dasharray:5.0364,7.051;}
	.st3{fill:none;stroke:#E74C3C;stroke-width:3;stroke-linecap:round;stroke-linejoin:round;stroke-dasharray:5.0367,7.0514;}
	.st4{fill:#E74C3C;}
	.st5{fill:none;stroke:#E74C3C;stroke-width:2;stroke-linecap:round;stroke-linejoin:round;stroke-miterlimit:10;}
	.st6{fill:none;stroke:#E74C3C;stroke-width:3;stroke-linecap:round;stroke-linejoin:round;stroke-dasharray:5.0185,7.026;}
	.st7{fill:none;stroke:#E74C3C;stroke-width:3;stroke-linecap:round;stroke-linejoin:round;stroke-dasharray:4.961,6.9453;}
	.st8{fill:none;stroke:#E74C3C;stroke-width:3;stroke-linecap:round;stroke-linejoin:round;stroke-dasharray:5.0208,7.0291;}
	.st9{fill:none;stroke:#E74C3C;stroke-width:3;stroke-linecap:round;stroke-linejoin:round;stroke-dasharray:5.0284,7.0397;}
	.st10{fill:none;stroke:#E74C3C;stroke-width:3;stroke-linecap:round;stroke-linejoin:round;stroke-dasharray:5.0233,7.0327;}
	.st11{fill:none;stroke:#E74C3C;stroke-width:3;stroke-linecap:round;stroke-linejoin:round;stroke-dasharray:4.9671,6.954;}
	.st12{fill:none;stroke:#E74C3C;stroke-width:3;stroke-linecap:round;stroke-linejoin:round;stroke-dasharray:5.0051,7.0072;}
	.st13{fill:none;stroke:#E74C3C;stroke-width:3;stroke-linecap:round;stroke-linejoin:round;stroke-dasharray:4.9852,6.9793;}
	.st14{fill:none;stroke:#E74C3C;stroke-width:3;stroke-linecap:round;stroke-linejoin:round;stroke-dasharray:5.026,7.0364;}
	.st15{fill:none;stroke:#E74C3C;stroke-width:3;stroke-linecap:round;stroke-linejoin:round;stroke-dasharray:4.9907,6.9869;}
	.st16{fill:none;stroke:#E74C3C;stroke-width:3;stroke-linecap:round;stroke-linejoin:round;stroke-dasharray:4.9715,6.9601;}
	.st17{fill:none;stroke:#E74C3C;stroke-width:3;stroke-linecap:round;stroke-linejoin:round;stroke-dasharray:4.9812,6.9737;}
	.st18{fill:none;stroke:#E74C3C;stroke-width:3;stroke-linecap:round;stroke-linejoin:round;stroke-dasharray:5.006,7.0085;}
	.st19{fill:none;stroke:#E74C3C;stroke-width:3;stroke-linecap:round;stroke-linejoin:round;stroke-dasharray:4.9622,6.9471;}
	.st20{fill:none;stroke:#E74C3C;stroke-width:3;stroke-linecap:round;stroke-linejoin:round;stroke-dasharray:5.0245,7.0343;}
	.st21{fill:none;stroke:#E74C3C;stroke-width:3;stroke-linecap:round;stroke-linejoin:round;stroke-dasharray:5.0314,7.044;}
	.st22{fill:none;stroke:#E74C3C;stroke-width:3;stroke-linecap:round;stroke-linejoin:round;stroke-dasharray:4.9796,6.9714;}
	.st23{fill:none;stroke:#E74C3C;stroke-width:3;stroke-linecap:round;stroke-linejoin:round;stroke-dasharray:4.9609,6.9453;}
	.st24{fill:none;stroke:#E74C3C;stroke-width:3;stroke-linecap:round;stroke-linejoin:round;stroke-dasharray:5.0092,7.0128;}
	.st25{fill:none;stroke:#E74C3C;stroke-width:3;stroke-linecap:round;stroke-linejoin:round;stroke-dasharray:5.0036,7.0051;}
	.st26{fill:none;stroke:#E74C3C;stroke-width:2.25;stroke-linecap:round;stroke-linejoin:round;stroke-miterlimit:10;}
	.st27{fill:none;stroke:#E74C3C;stroke-width:2.75;stroke-linecap:round;stroke-linejoin:round;stroke-miterlimit:10;}
	.st28{fill:none;stroke:#E74C3C;stroke-width:2.75;stroke-linecap:round;stroke-linejoin:round;}
	.st29{fill:none;stroke:#E74C3C;stroke-width:2.75;stroke-linecap:round;stroke-linejoin:round;stroke-dasharray:3.0434,5.0723;}
	.st30{fill:none;stroke:#E74C3C;stroke-width:2.75;stroke-linecap:round;stroke-linejoin:round;stroke-dasharray:3.0139,5.0232;}
	.st31{fill:none;stroke:#E74C3C;stroke-width:2.75;stroke-linecap:round;stroke-linejoin:round;stroke-dasharray:2.9543,4.9239;}
	.st32{fill:none;stroke:#E74C3C;stroke-width:2.75;stroke-linecap:round;stroke-linejoin:round;stroke-dasharray:2.982,4.9701;}
	.st33{fill:none;stroke:#E74C3C;stroke-width:2.75;stroke-linecap:round;stroke-linejoin:round;stroke-dasharray:3.0277,5.0461;}
	.st34{fill:none;stroke:#E74C3C;stroke-width:2.75;stroke-linecap:round;stroke-linejoin:round;stroke-dasharray:2.9621,4.9368;}
	.st35{fill:none;stroke:#E74C3C;stroke-width:2.75;stroke-linecap:round;stroke-linejoin:round;stroke-dasharray:2.9867,4.9779;}
	.st36{fill:none;stroke:#E74C3C;stroke-width:2.75;stroke-linecap:round;stroke-linejoin:round;stroke-dasharray:3.0154,5.0256;}
	.st37{fill:none;stroke:#E74C3C;stroke-width:2.75;stroke-linecap:round;stroke-linejoin:round;stroke-dasharray:3.0107,5.0178;}
	.st38{fill:none;stroke:#E74C3C;stroke-width:2.75;stroke-linecap:round;stroke-linejoin:round;stroke-dasharray:2.9806,4.9677;}
	.st39{fill:none;stroke:#E74C3C;stroke-width:2.75;stroke-linecap:round;stroke-linejoin:round;stroke-dasharray:3.015,5.025;}
	.st40{fill:none;stroke:#E74C3C;stroke-width:2.75;stroke-linecap:round;stroke-linejoin:round;stroke-dasharray:3.0382,5.0637;}
	.st41{fill:none;stroke:#E74C3C;stroke-width:2.75;stroke-linecap:round;stroke-linejoin:round;stroke-dasharray:2.9712,4.952;}
	.st42{fill:none;stroke:#E74C3C;stroke-width:2.75;stroke-linecap:round;stroke-linejoin:round;stroke-dasharray:2.9693,4.9489;}
	.st43{fill:none;stroke:#E74C3C;stroke-width:2.75;stroke-linecap:round;stroke-linejoin:round;stroke-dasharray:3.0241,5.0402;}
	.st44{fill:none;stroke:#E74C3C;stroke-width:3;stroke-linecap:round;stroke-linejoin:round;stroke-miterlimit:10;}
	.st45{fill:none;stroke:#E74C3C;stroke-width:3;stroke-linecap:round;stroke-linejoin:round;stroke-dasharray:3.9593,6.9287;}
	.st46{fill:none;stroke:#E74C3C;stroke-width:3;stroke-linecap:round;stroke-linejoin:round;stroke-dasharray:3.9546,6.9205;}
	.st47{fill:none;stroke:#E74C3C;stroke-width:3;stroke-linecap:round;stroke-linejoin:round;stroke-dasharray:3.9732,6.9532;}
	.st48{fill:none;stroke:#E74C3C;stroke-width:3;stroke-linecap:round;stroke-linejoin:round;stroke-dasharray:4.0151,7.0264;}
	.st49{fill:none;stroke:#E74C3C;stroke-width:3;stroke-linecap:round;stroke-linejoin:round;stroke-dasharray:4.0052,7.0091;}
	.st50{fill:none;stroke:#E74C3C;stroke-width:3;stroke-linecap:round;stroke-linejoin:round;stroke-dasharray:4.0405,7.0708;}
	.st51{fill:none;stroke:#E74C3C;stroke-width:3;stroke-linecap:round;stroke-linejoin:round;stroke-dasharray:3.9737,6.954;}
	.st52{fill:none;stroke:#E74C3C;stroke-width:3;stroke-linecap:round;stroke-linejoin:round;stroke-dasharray:4.0008,7.0013;}
	.st53{fill:none;stroke:#E74C3C;stroke-width:3;stroke-linecap:round;stroke-linejoin:round;stroke-dasharray:3.9725,6.9519;}
	.st54{fill:none;stroke:#E74C3C;stroke-width:3;stroke-linecap:round;stroke-linejoin:round;stroke-dasharray:3.9628,6.9349;}
	.st55{fill:none;stroke:#E74C3C;stroke-width:3;stroke-linecap:round;stroke-linejoin:round;stroke-dasharray:3.9976,6.9958;}
	
		.st56{fill:none;stroke:#E74C3C;stroke-width:2.5;stroke-linecap:round;stroke-linejoin:round;stroke-miterlimit:10;stroke-dasharray:3,4;}
	.st57{fill:none;stroke:#E74C3C;stroke-width:2.75;stroke-linecap:round;stroke-linejoin:round;stroke-dasharray:2.9977,4.9961;}
	.st58{fill:none;stroke:#E74C3C;stroke-width:2.75;stroke-linecap:round;stroke-linejoin:round;stroke-dasharray:3.0271,5.0451;}
	.st59{fill:none;stroke:#E74C3C;stroke-width:2.75;stroke-linecap:round;stroke-linejoin:round;stroke-dasharray:2.973,4.955;}
	.st60{fill:none;stroke:#E74C3C;stroke-width:2.75;stroke-linecap:round;stroke-linejoin:round;stroke-dasharray:3.0088,5.0147;}
	.st61{fill:none;stroke:#E74C3C;stroke-width:2.75;stroke-linecap:round;stroke-linejoin:round;stroke-dasharray:3.0013,5.0022;}
	.st62{fill:none;stroke:#E74C3C;stroke-width:2.75;stroke-linecap:round;stroke-linejoin:round;stroke-dasharray:3.0278,5.0464;}
	.st63{fill:none;stroke:#E74C3C;stroke-width:3.5;stroke-linecap:round;stroke-linejoin:round;stroke-miterlimit:10;}
</style>
<g id="FILL-BACKGROUND">
	<rect x="0" class="st0" width="1000" height="650"/>
</g>
<g id="N-DIMENSIONS">
	<g>
		<g>
			<g id="POLYLINE_1844_">
				<g>
					<g>
						<path class="st1" d="M727.476,301.191c-0.039-0.845-0.264-1.645-0.635-2.403"/>
						<path class="st2" d="M721.925,293.847c-0.867-0.573-1.786-1.112-2.718-1.622c-4.67-2.553-10.193-4.399-15.648-6.071
							c-11.668-3.577-24.143-5.961-36.541-8.108c-12.832-2.221-25.859-3.882-38.899-5.453c-12.596-1.516-25.342-2.716-38.051-3.719
							c-13.174-1.04-26.357-2.039-39.58-2.763c-13.709-0.751-27.418-1.391-41.149-1.932c-13.674-0.54-27.365-0.841-41.053-1.114
							c-13.609-0.272-27.223-0.301-40.836-0.372c-13.062-0.069-26.141,0.109-39.199,0.313c-13.053,0.204-26.097,0.546-39.135,0.988
							c-12.948,0.439-25.888,0.984-38.81,1.691c-13.035,0.715-26.06,1.509-39.051,2.533c-13.579,1.073-27.131,2.273-40.626,3.751
							c-12.823,1.402-25.61,3.01-38.249,5.033c-12.913,2.066-25.643,4.515-38.014,7.749c-5.577,1.458-11.112,3.229-16.151,5.396
							c-3.617,1.556-7.398,3.435-9.916,5.851"/>
						<path class="st1" d="M126.165,298.784c-0.383,0.775-0.606,1.593-0.588,2.407"/>
					</g>
				</g>
			</g>
			<g id="POLYLINE_1843_">
				<g>
					<g>
						<path class="st1" d="M125.577,301.191c-0.018,0.831,0.187,1.638,0.562,2.414"/>
						<path class="st3" d="M131.056,308.552c0.971,0.636,1.996,1.216,3.01,1.729c4.826,2.441,10.132,4.39,15.665,6.027
							c11.946,3.536,24.495,6.001,37.131,8.174c12.571,2.16,25.361,3.882,38.166,5.304c12.807,1.426,25.641,2.752,38.536,3.774
							c13.126,1.04,26.262,2.026,39.44,2.742c13.569,0.737,27.146,1.445,40.743,1.907c13.769,0.468,27.532,0.842,41.312,1.12
							c13.583,0.273,27.173,0.294,40.762,0.369c13.143,0.073,26.305-0.122,39.444-0.324c13.146-0.202,26.283-0.562,39.414-1.008
							c12.992-0.441,25.973-1.01,38.938-1.716c13.023-0.707,26.029-1.521,39.006-2.547c13.6-1.077,27.17-2.292,40.68-3.792
							c12.752-1.417,25.463-3.014,38.033-5.036c12.75-2.052,25.275-4.508,37.502-7.682c5.525-1.435,11.143-3.194,16.084-5.392
							c3.564-1.585,7.329-3.415,9.829-5.809"/>
						<path class="st1" d="M726.872,303.601c0.374-0.78,0.566-1.576,0.605-2.409"/>
					</g>
				</g>
			</g>
		</g>
		<g>
			<g>
				<g id="MTEXT_61_">
					<g>
						<path class="st4" d="M746.758,296.542c-0.087-0.087-0.13-0.196-0.13-0.33v-0.6c0-0.307,0.167-0.601,0.5-0.881l4.36-4.34
							c0.987-0.84,1.667-1.526,2.04-2.06c0.373-0.533,0.56-1.101,0.56-1.7c0-0.786-0.22-1.403-0.66-1.85
							c-0.44-0.447-1.08-0.67-1.92-0.67c-0.8,0-1.433,0.233-1.9,0.699c-0.467,0.467-0.753,1.094-0.86,1.88
							c-0.027,0.147-0.094,0.261-0.2,0.341c-0.107,0.08-0.213,0.12-0.32,0.12h-0.96c-0.12,0-0.22-0.04-0.3-0.12
							c-0.08-0.08-0.12-0.174-0.12-0.28c0.026-0.707,0.216-1.39,0.57-2.05c0.353-0.66,0.876-1.2,1.57-1.62s1.533-0.63,2.52-0.63
							c1.493,0,2.617,0.39,3.37,1.17c0.753,0.78,1.13,1.77,1.13,2.97c0,0.84-0.203,1.597-0.61,2.271
							c-0.407,0.673-1.043,1.383-1.91,2.13l-3.94,4h6.3c0.146,0,0.26,0.04,0.34,0.12c0.08,0.079,0.12,0.193,0.12,0.34v0.76
							c0,0.134-0.043,0.243-0.13,0.33c-0.086,0.087-0.197,0.13-0.33,0.13h-8.76C746.955,296.672,746.845,296.629,746.758,296.542z"
							/>
						<path class="st4" d="M758.438,296.542c-0.087-0.087-0.13-0.196-0.13-0.33v-0.6c0-0.307,0.167-0.601,0.5-0.881l4.36-4.34
							c0.987-0.84,1.667-1.526,2.04-2.06c0.373-0.533,0.56-1.101,0.56-1.7c0-0.786-0.22-1.403-0.66-1.85
							c-0.44-0.447-1.08-0.67-1.92-0.67c-0.8,0-1.433,0.233-1.9,0.699c-0.467,0.467-0.753,1.094-0.86,1.88
							c-0.027,0.147-0.094,0.261-0.2,0.341c-0.107,0.08-0.213,0.12-0.32,0.12h-0.96c-0.12,0-0.22-0.04-0.3-0.12
							c-0.08-0.08-0.12-0.174-0.12-0.28c0.026-0.707,0.216-1.39,0.57-2.05c0.353-0.66,0.876-1.2,1.57-1.62s1.533-0.63,2.52-0.63
							c1.493,0,2.617,0.39,3.37,1.17c0.753,0.78,1.13,1.77,1.13,2.97c0,0.84-0.203,1.597-0.61,2.271
							c-0.407,0.673-1.043,1.383-1.91,2.13l-3.94,4h6.3c0.146,0,0.26,0.04,0.34,0.12c0.08,0.079,0.12,0.193,0.12,0.34v0.76
							c0,0.134-0.043,0.243-0.13,0.33c-0.086,0.087-0.197,0.13-0.33,0.13h-8.76C758.635,296.672,758.525,296.629,758.438,296.542z"
							/>
						<path class="st4" d="M770.499,296.542c-0.087-0.087-0.13-0.196-0.13-0.33v-1.38c0-0.133,0.043-0.247,0.13-0.34
							c0.086-0.094,0.196-0.141,0.33-0.141h1.38c0.133,0,0.243,0.047,0.33,0.141c0.087,0.093,0.13,0.207,0.13,0.34v1.38
							c0,0.134-0.043,0.243-0.13,0.33c-0.086,0.087-0.197,0.13-0.33,0.13h-1.38C770.695,296.672,770.585,296.629,770.499,296.542z"
							/>
						<path class="st4" d="M777.229,296.332c-0.734-0.36-1.293-0.83-1.68-1.41s-0.593-1.203-0.62-1.87v-0.04
							c0-0.106,0.04-0.193,0.12-0.26s0.173-0.1,0.28-0.1h0.98c0.28,0,0.46,0.146,0.54,0.439c0.2,0.72,0.57,1.257,1.11,1.61
							s1.163,0.529,1.87,0.529c0.907,0,1.66-0.276,2.26-0.829c0.6-0.554,0.9-1.317,0.9-2.29c0-0.894-0.3-1.604-0.9-2.131
							c-0.6-0.526-1.354-0.79-2.26-0.79c-0.48,0-0.867,0.061-1.16,0.181c-0.293,0.12-0.594,0.293-0.9,0.52
							c-0.173,0.134-0.316,0.23-0.43,0.29c-0.113,0.061-0.237,0.09-0.37,0.09h-0.96c-0.12,0-0.227-0.043-0.32-0.13
							c-0.094-0.086-0.134-0.189-0.12-0.31l0.62-6.66c0.04-0.333,0.207-0.5,0.5-0.5h6.92c0.146,0,0.26,0.04,0.34,0.12
							s0.12,0.193,0.12,0.34v0.74c0,0.133-0.043,0.24-0.13,0.319c-0.087,0.08-0.197,0.12-0.33,0.12h-5.76l-0.36,4.021
							c0.64-0.453,1.5-0.68,2.58-0.68c0.893,0,1.707,0.177,2.44,0.529c0.733,0.354,1.316,0.87,1.75,1.55
							c0.433,0.681,0.65,1.487,0.65,2.421c0,0.986-0.217,1.836-0.65,2.55c-0.434,0.713-1.033,1.253-1.8,1.62
							c-0.767,0.366-1.644,0.55-2.63,0.55C778.828,296.872,777.961,296.691,777.229,296.332z"/>
						<path class="st4" d="M789.438,296.542c-0.073-0.087-0.11-0.19-0.11-0.311c0-0.093,0.026-0.18,0.08-0.26l3.08-4.28
							c-0.32,0.08-0.693,0.12-1.12,0.12c-0.96-0.013-1.8-0.236-2.52-0.67c-0.72-0.433-1.27-1-1.65-1.7
							c-0.38-0.699-0.57-1.449-0.57-2.25c0-0.8,0.19-1.56,0.57-2.279c0.38-0.721,0.946-1.307,1.7-1.76s1.663-0.681,2.73-0.681
							s1.98,0.22,2.74,0.66c0.76,0.44,1.333,1.017,1.72,1.73c0.386,0.713,0.58,1.477,0.58,2.29c0,0.733-0.13,1.38-0.39,1.939
							c-0.26,0.561-0.604,1.14-1.03,1.74l-3.88,5.439c-0.093,0.12-0.184,0.217-0.27,0.29c-0.087,0.074-0.21,0.11-0.37,0.11h-1
							C789.608,296.672,789.511,296.629,789.438,296.542z M793.208,289.852c0.48-0.253,0.86-0.609,1.14-1.069s0.42-0.99,0.42-1.591
							c0-0.612-0.14-1.152-0.42-1.619s-0.66-0.827-1.14-1.08c-0.48-0.254-1.007-0.38-1.58-0.38c-0.56,0-1.077,0.126-1.55,0.38
							c-0.474,0.253-0.85,0.613-1.13,1.08c-0.28,0.467-0.42,1.007-0.42,1.619c0,0.601,0.14,1.131,0.42,1.591
							c0.28,0.46,0.653,0.816,1.12,1.069c0.466,0.254,0.986,0.38,1.56,0.38S792.728,290.105,793.208,289.852z"/>
						<path class="st4" d="M798.878,286.152c-0.06-0.08-0.077-0.181-0.05-0.301l0.44-2.8c0.053-0.387,0.24-0.58,0.56-0.58h1.28
							c0.093,0,0.17,0.033,0.23,0.101c0.06,0.066,0.09,0.146,0.09,0.239c0,0.134-0.02,0.24-0.06,0.32l-1.04,2.7
							c-0.067,0.146-0.14,0.257-0.22,0.33s-0.2,0.109-0.36,0.109h-0.62C799.021,286.271,798.938,286.231,798.878,286.152z
							 M802.018,286.152c-0.06-0.08-0.077-0.181-0.05-0.301l0.44-2.8c0.053-0.387,0.24-0.58,0.56-0.58h1.28
							c0.093,0,0.17,0.033,0.23,0.101c0.06,0.066,0.09,0.146,0.09,0.239c0,0.134-0.02,0.24-0.06,0.32l-1.04,2.7
							c-0.067,0.146-0.14,0.257-0.22,0.33s-0.2,0.109-0.36,0.109h-0.62C802.161,286.271,802.078,286.231,802.018,286.152z"/>
						<path class="st4" d="M805.318,291.352c-0.086-0.08-0.13-0.187-0.13-0.319v-0.721c0-0.133,0.043-0.243,0.13-0.33
							c0.087-0.086,0.197-0.13,0.33-0.13h6c0.133,0,0.243,0.044,0.33,0.13c0.086,0.087,0.13,0.197,0.13,0.33v0.721
							c0,0.133-0.043,0.239-0.13,0.319c-0.087,0.08-0.197,0.12-0.33,0.12h-6C805.515,291.472,805.405,291.432,805.318,291.352z"/>
						<path class="st4" d="M813.798,296.542c-0.087-0.087-0.13-0.196-0.13-0.33v-0.6c0-0.307,0.167-0.601,0.5-0.881l4.36-4.34
							c0.987-0.84,1.667-1.526,2.04-2.06c0.373-0.533,0.56-1.101,0.56-1.7c0-0.786-0.22-1.403-0.66-1.85
							c-0.44-0.447-1.08-0.67-1.92-0.67c-0.8,0-1.433,0.233-1.9,0.699c-0.467,0.467-0.753,1.094-0.86,1.88
							c-0.027,0.147-0.094,0.261-0.2,0.341c-0.107,0.08-0.213,0.12-0.32,0.12h-0.96c-0.12,0-0.22-0.04-0.3-0.12
							c-0.08-0.08-0.12-0.174-0.12-0.28c0.026-0.707,0.216-1.39,0.57-2.05c0.353-0.66,0.876-1.2,1.57-1.62s1.533-0.63,2.52-0.63
							c1.493,0,2.617,0.39,3.37,1.17c0.753,0.78,1.13,1.77,1.13,2.97c0,0.84-0.203,1.597-0.61,2.271
							c-0.407,0.673-1.043,1.383-1.91,2.13l-3.94,4h6.3c0.146,0,0.26,0.04,0.34,0.12c0.08,0.079,0.12,0.193,0.12,0.34v0.76
							c0,0.134-0.043,0.243-0.13,0.33c-0.086,0.087-0.197,0.13-0.33,0.13h-8.76C813.995,296.672,813.885,296.629,813.798,296.542z"
							/>
						<path class="st4" d="M827.738,296.222c-0.78-0.433-1.374-1.017-1.78-1.75s-0.61-1.533-0.61-2.399
							c0-1.146,0.46-2.373,1.38-3.681l3.82-5.319c0.013-0.014,0.05-0.061,0.11-0.141s0.137-0.143,0.23-0.189s0.2-0.07,0.32-0.07
							h0.98c0.12,0,0.217,0.043,0.29,0.13s0.11,0.19,0.11,0.311c0,0.066-0.034,0.153-0.1,0.26l-2.92,4.08
							c0.346-0.08,0.733-0.12,1.16-0.12c0.973,0,1.83,0.217,2.57,0.649c0.74,0.434,1.313,1.007,1.72,1.721
							c0.407,0.713,0.61,1.497,0.61,2.35c0,0.854-0.203,1.65-0.61,2.39c-0.407,0.74-0.997,1.33-1.77,1.771s-1.687,0.66-2.74,0.66
							C829.441,296.872,828.518,296.655,827.738,296.222z M832.108,294.852c0.493-0.239,0.886-0.597,1.18-1.069
							c0.293-0.474,0.44-1.044,0.44-1.71c0-0.653-0.15-1.217-0.45-1.69c-0.3-0.473-0.697-0.833-1.19-1.08
							c-0.494-0.246-1.027-0.37-1.6-0.37c-0.574,0-1.107,0.124-1.6,0.37c-0.494,0.247-0.887,0.607-1.18,1.08
							c-0.293,0.474-0.44,1.037-0.44,1.69c0,0.666,0.146,1.236,0.44,1.71c0.293,0.473,0.687,0.83,1.18,1.069
							c0.493,0.24,1.026,0.36,1.6,0.36C831.075,295.212,831.615,295.092,832.108,294.852z"/>
						<path class="st4" d="M837.858,296.542c-0.087-0.087-0.13-0.196-0.13-0.33v-1.38c0-0.133,0.043-0.247,0.13-0.34
							c0.086-0.094,0.196-0.141,0.33-0.141h1.38c0.133,0,0.243,0.047,0.33,0.141c0.087,0.093,0.13,0.207,0.13,0.34v1.38
							c0,0.134-0.043,0.243-0.13,0.33c-0.086,0.087-0.197,0.13-0.33,0.13h-1.38C838.054,296.672,837.944,296.629,837.858,296.542z"
							/>
						<path class="st4" d="M844.588,296.362c-0.76-0.341-1.337-0.783-1.73-1.33c-0.394-0.547-0.604-1.113-0.63-1.7
							c0-0.12,0.04-0.217,0.12-0.29s0.18-0.11,0.3-0.11h0.9c0.146,0,0.267,0.03,0.36,0.09c0.093,0.061,0.167,0.178,0.22,0.351
							c0.173,0.68,0.55,1.16,1.13,1.439c0.58,0.28,1.263,0.42,2.05,0.42c0.96,0,1.723-0.229,2.29-0.689
							c0.566-0.46,0.85-1.116,0.85-1.97c0-1.627-0.994-2.44-2.98-2.44h-1.88c-0.134,0-0.244-0.043-0.33-0.13
							c-0.087-0.087-0.13-0.196-0.13-0.33v-0.52c0-0.2,0.073-0.374,0.22-0.521l3.9-4.32h-5.92c-0.133,0-0.243-0.04-0.33-0.12
							c-0.087-0.079-0.13-0.187-0.13-0.319v-0.72c0-0.147,0.043-0.264,0.13-0.351s0.197-0.13,0.33-0.13h7.92
							c0.146,0,0.263,0.043,0.35,0.13c0.086,0.087,0.13,0.203,0.13,0.351v0.659c0,0.147-0.067,0.301-0.2,0.46l-3.9,4.381h0.32
							c1.36,0.039,2.437,0.393,3.23,1.06c0.793,0.667,1.19,1.64,1.19,2.92c0,0.88-0.217,1.637-0.65,2.271
							c-0.434,0.633-1.037,1.119-1.81,1.46c-0.773,0.34-1.647,0.51-2.62,0.51C846.248,296.872,845.348,296.702,844.588,296.362z"/>
						<path class="st4" d="M861.038,296.542c-0.087-0.087-0.13-0.196-0.13-0.33v-2.92h-6.5c-0.133,0-0.244-0.043-0.33-0.13
							c-0.087-0.087-0.13-0.197-0.13-0.33v-0.74c0-0.187,0.073-0.387,0.22-0.6l6.02-8.48c0.067-0.106,0.167-0.189,0.3-0.25
							c0.133-0.06,0.28-0.09,0.44-0.09h1.36c0.146,0,0.26,0.04,0.34,0.12c0.08,0.08,0.12,0.193,0.12,0.34v8.48h1.82
							c0.133,0,0.243,0.043,0.33,0.13s0.13,0.196,0.13,0.33v0.76c0,0.133-0.043,0.243-0.13,0.33s-0.197,0.13-0.33,0.13h-1.82v2.92
							c0,0.134-0.043,0.243-0.13,0.33c-0.087,0.087-0.197,0.13-0.33,0.13h-0.92C861.234,296.672,861.124,296.629,861.038,296.542z
							 M856.028,291.652h4.9v-6.961L856.028,291.652z"/>
						<path class="st4" d="M866.897,286.152c-0.06-0.08-0.077-0.181-0.05-0.301l0.44-2.8c0.053-0.387,0.24-0.58,0.56-0.58h1.28
							c0.093,0,0.17,0.033,0.23,0.101c0.06,0.066,0.09,0.146,0.09,0.239c0,0.134-0.02,0.24-0.06,0.32l-1.04,2.7
							c-0.067,0.146-0.14,0.257-0.22,0.33s-0.2,0.109-0.36,0.109h-0.62C867.041,286.271,866.958,286.231,866.897,286.152z
							 M870.038,286.152c-0.06-0.08-0.077-0.181-0.05-0.301l0.44-2.8c0.053-0.387,0.24-0.58,0.56-0.58h1.28
							c0.093,0,0.17,0.033,0.23,0.101c0.06,0.066,0.09,0.146,0.09,0.239c0,0.134-0.02,0.24-0.06,0.32l-1.04,2.7
							c-0.067,0.146-0.14,0.257-0.22,0.33s-0.2,0.109-0.36,0.109h-0.62C870.181,286.271,870.098,286.231,870.038,286.152z"/>
						<path class="st4" d="M749.019,317.821c-0.78-0.433-1.374-1.017-1.78-1.75s-0.61-1.533-0.61-2.399
							c0-1.146,0.46-2.373,1.38-3.681l3.82-5.319c0.013-0.014,0.05-0.061,0.11-0.141s0.137-0.143,0.23-0.189s0.2-0.07,0.32-0.07
							h0.98c0.12,0,0.217,0.043,0.29,0.13s0.11,0.19,0.11,0.311c0,0.066-0.034,0.153-0.1,0.26l-2.92,4.08
							c0.346-0.08,0.733-0.12,1.16-0.12c0.973,0,1.83,0.217,2.57,0.649c0.74,0.434,1.313,1.007,1.72,1.721
							c0.407,0.713,0.61,1.497,0.61,2.35c0,0.854-0.203,1.65-0.61,2.39c-0.407,0.74-0.997,1.33-1.77,1.771s-1.687,0.66-2.74,0.66
							C750.722,318.472,749.798,318.255,749.019,317.821z M753.389,316.451c0.493-0.239,0.886-0.597,1.18-1.069
							c0.293-0.474,0.44-1.044,0.44-1.71c0-0.653-0.15-1.217-0.45-1.69c-0.3-0.473-0.697-0.833-1.19-1.08
							c-0.494-0.246-1.027-0.37-1.6-0.37c-0.574,0-1.107,0.124-1.6,0.37c-0.494,0.247-0.887,0.607-1.18,1.08
							c-0.293,0.474-0.44,1.037-0.44,1.69c0,0.666,0.146,1.236,0.44,1.71c0.293,0.473,0.687,0.83,1.18,1.069
							c0.493,0.24,1.026,0.36,1.6,0.36C752.355,316.812,752.895,316.691,753.389,316.451z"/>
						<path class="st4" d="M760.869,317.932c-0.734-0.36-1.293-0.83-1.68-1.41s-0.593-1.203-0.62-1.87v-0.04
							c0-0.106,0.04-0.193,0.12-0.26s0.173-0.1,0.28-0.1h0.98c0.28,0,0.46,0.146,0.54,0.439c0.2,0.72,0.57,1.257,1.11,1.61
							s1.163,0.529,1.87,0.529c0.907,0,1.66-0.276,2.26-0.829c0.6-0.554,0.9-1.317,0.9-2.29c0-0.894-0.3-1.604-0.9-2.131
							c-0.6-0.526-1.354-0.79-2.26-0.79c-0.48,0-0.867,0.061-1.16,0.181c-0.293,0.12-0.594,0.293-0.9,0.52
							c-0.173,0.134-0.316,0.23-0.43,0.29c-0.113,0.061-0.237,0.09-0.37,0.09h-0.96c-0.12,0-0.227-0.043-0.32-0.13
							c-0.094-0.086-0.134-0.189-0.12-0.31l0.62-6.66c0.04-0.333,0.207-0.5,0.5-0.5h6.92c0.146,0,0.26,0.04,0.34,0.12
							s0.12,0.193,0.12,0.34v0.74c0,0.133-0.043,0.24-0.13,0.319c-0.087,0.08-0.197,0.12-0.33,0.12h-5.76l-0.36,4.021
							c0.64-0.453,1.5-0.68,2.58-0.68c0.893,0,1.707,0.177,2.44,0.529c0.733,0.354,1.316,0.87,1.75,1.55
							c0.433,0.681,0.65,1.487,0.65,2.421c0,0.986-0.217,1.836-0.65,2.55c-0.434,0.713-1.033,1.253-1.8,1.62
							c-0.767,0.366-1.644,0.55-2.63,0.55C762.468,318.472,761.602,318.291,760.869,317.932z"/>
						<path class="st4" d="M770.998,312.951c-0.086-0.08-0.13-0.187-0.13-0.319v-0.721c0-0.133,0.043-0.243,0.13-0.33
							c0.087-0.086,0.197-0.13,0.33-0.13h6c0.133,0,0.243,0.044,0.33,0.13c0.086,0.087,0.13,0.197,0.13,0.33v0.721
							c0,0.133-0.043,0.239-0.13,0.319c-0.087,0.08-0.197,0.12-0.33,0.12h-6C771.195,313.071,771.085,313.031,770.998,312.951z"/>
						<path class="st4" d="M782.538,317.821c-0.78-0.433-1.374-1.017-1.78-1.75s-0.61-1.533-0.61-2.399
							c0-1.146,0.46-2.373,1.38-3.681l3.82-5.319c0.013-0.014,0.05-0.061,0.11-0.141s0.137-0.143,0.23-0.189s0.2-0.07,0.32-0.07
							h0.98c0.12,0,0.217,0.043,0.29,0.13s0.11,0.19,0.11,0.311c0,0.066-0.034,0.153-0.1,0.26l-2.92,4.08
							c0.346-0.08,0.733-0.12,1.16-0.12c0.973,0,1.83,0.217,2.57,0.649c0.74,0.434,1.313,1.007,1.72,1.721
							c0.407,0.713,0.61,1.497,0.61,2.35c0,0.854-0.203,1.65-0.61,2.39c-0.407,0.74-0.997,1.33-1.77,1.771s-1.687,0.66-2.74,0.66
							C784.241,318.472,783.318,318.255,782.538,317.821z M786.908,316.451c0.493-0.239,0.886-0.597,1.18-1.069
							c0.293-0.474,0.44-1.044,0.44-1.71c0-0.653-0.15-1.217-0.45-1.69c-0.3-0.473-0.697-0.833-1.19-1.08
							c-0.494-0.246-1.027-0.37-1.6-0.37c-0.574,0-1.107,0.124-1.6,0.37c-0.494,0.247-0.887,0.607-1.18,1.08
							c-0.293,0.474-0.44,1.037-0.44,1.69c0,0.666,0.146,1.236,0.44,1.71c0.293,0.473,0.687,0.83,1.18,1.069
							c0.493,0.24,1.026,0.36,1.6,0.36C785.875,316.812,786.415,316.691,786.908,316.451z"/>
						<path class="st4" d="M793.258,318.142c-0.073-0.087-0.11-0.19-0.11-0.311l0.04-0.18l5-11.7h-6.6
							c-0.133,0-0.244-0.043-0.33-0.13c-0.087-0.086-0.13-0.196-0.13-0.33v-0.739c0-0.147,0.04-0.264,0.12-0.351
							c0.08-0.087,0.193-0.13,0.34-0.13h8.16c0.146,0,0.26,0.043,0.34,0.13s0.12,0.203,0.12,0.351v0.68c0,0.24-0.054,0.5-0.16,0.78
							l-4.94,11.56c-0.067,0.146-0.14,0.267-0.22,0.36c-0.08,0.093-0.193,0.14-0.34,0.14h-1
							C793.428,318.271,793.331,318.229,793.258,318.142z"/>
						<path class="st4" d="M807.987,317.262c-0.8-0.807-1.22-1.937-1.26-3.391l-0.02-0.8l0.02-0.8c0.04-1.453,0.46-2.583,1.26-3.39
							c0.8-0.807,1.913-1.21,3.34-1.21c0.96,0,1.77,0.17,2.43,0.51c0.66,0.34,1.153,0.764,1.48,1.27
							c0.327,0.507,0.503,1.014,0.53,1.521c0.013,0.12-0.03,0.227-0.13,0.319c-0.1,0.094-0.21,0.141-0.33,0.141h-0.88
							c-0.133,0-0.233-0.03-0.3-0.09c-0.067-0.061-0.133-0.17-0.2-0.33c-0.24-0.653-0.57-1.117-0.99-1.391
							c-0.42-0.272-0.95-0.409-1.59-0.409c-0.84,0-1.507,0.26-2,0.779c-0.494,0.521-0.76,1.313-0.8,2.38l-0.02,0.7l0.02,0.7
							c0.04,1.066,0.307,1.86,0.8,2.38c0.493,0.521,1.16,0.78,2,0.78c0.653,0,1.187-0.137,1.6-0.41
							c0.414-0.273,0.74-0.736,0.98-1.39c0.067-0.16,0.133-0.271,0.2-0.33c0.066-0.061,0.167-0.09,0.3-0.09h0.88
							c0.12,0,0.23,0.047,0.33,0.14c0.1,0.094,0.143,0.2,0.13,0.32c-0.027,0.493-0.204,0.993-0.53,1.5s-0.82,0.933-1.48,1.279
							c-0.66,0.347-1.47,0.521-2.43,0.521C809.9,318.472,808.788,318.068,807.987,317.262z"/>
						<path class="st4" d="M818.297,318.142c-0.087-0.087-0.13-0.196-0.13-0.33v-9.48c0-0.133,0.043-0.243,0.13-0.329
							c0.087-0.087,0.197-0.131,0.33-0.131h0.84c0.133,0,0.24,0.044,0.32,0.131c0.08,0.086,0.12,0.196,0.12,0.329v0.681
							c0.72-0.894,1.693-1.34,2.92-1.34c1.466,0,2.506,0.613,3.12,1.84c0.32-0.561,0.777-1.007,1.37-1.34
							c0.593-0.334,1.257-0.5,1.99-0.5c1.093,0,1.986,0.373,2.68,1.119c0.693,0.747,1.04,1.827,1.04,3.24v5.78
							c0,0.134-0.043,0.243-0.13,0.33c-0.087,0.087-0.197,0.13-0.33,0.13h-0.86c-0.133,0-0.244-0.043-0.33-0.13
							c-0.087-0.087-0.13-0.196-0.13-0.33v-5.6c0-1.067-0.22-1.83-0.66-2.29s-1.02-0.69-1.74-0.69c-0.64,0-1.19,0.237-1.65,0.71
							c-0.46,0.474-0.69,1.23-0.69,2.271v5.6c0,0.134-0.043,0.243-0.13,0.33c-0.087,0.087-0.197,0.13-0.33,0.13h-0.88
							c-0.133,0-0.244-0.043-0.33-0.13c-0.087-0.087-0.13-0.196-0.13-0.33v-5.6c0-1.054-0.23-1.813-0.69-2.28s-1.03-0.7-1.71-0.7
							c-0.64,0-1.19,0.233-1.65,0.7c-0.46,0.467-0.69,1.22-0.69,2.26v5.62c0,0.134-0.043,0.243-0.13,0.33
							c-0.087,0.087-0.197,0.13-0.33,0.13h-0.88C818.494,318.271,818.384,318.229,818.297,318.142z"/>
						<path class="st4" d="M748.698,342.082c-0.673-0.646-1.157-1.65-1.45-3.01c-0.293-1.36-0.44-3.153-0.44-5.38
							s0.146-4.017,0.44-5.37c0.293-1.354,0.776-2.354,1.45-3s1.583-0.97,2.73-0.97c0.133,0,0.243,0.043,0.33,0.13
							s0.13,0.196,0.13,0.33v0.659c0,0.12-0.04,0.224-0.12,0.311s-0.173,0.13-0.28,0.13c-0.76,0.014-1.354,0.27-1.78,0.77
							c-0.427,0.5-0.733,1.308-0.92,2.421c-0.187,1.113-0.28,2.643-0.28,4.59c0,1.96,0.093,3.496,0.28,4.609
							c0.187,1.113,0.493,1.92,0.92,2.42c0.426,0.5,1.02,0.757,1.78,0.771c0.107,0,0.2,0.043,0.28,0.13s0.12,0.19,0.12,0.31v0.66
							c0,0.134-0.043,0.243-0.13,0.33s-0.197,0.13-0.33,0.13C750.282,343.052,749.372,342.729,748.698,342.082z"/>
						<path class="st4" d="M754.458,338.622c-0.927-0.967-1.423-2.29-1.49-3.97c-0.014-0.36-0.02-0.947-0.02-1.761
							c0-0.826,0.006-1.426,0.02-1.8c0.066-1.68,0.563-3.003,1.49-3.97s2.276-1.45,4.05-1.45c1.187,0,2.193,0.21,3.02,0.63
							s1.45,0.971,1.87,1.65s0.65,1.407,0.69,2.18c0,0.12-0.043,0.217-0.13,0.29c-0.087,0.073-0.19,0.11-0.31,0.11h-1
							c-0.133,0-0.24-0.033-0.32-0.101c-0.08-0.066-0.14-0.18-0.18-0.34c-0.227-1.026-0.637-1.746-1.23-2.16
							c-0.593-0.413-1.397-0.619-2.41-0.619c-2.32,0-3.527,1.293-3.62,3.88c-0.014,0.359-0.02,0.913-0.02,1.66
							c0,0.746,0.006,1.312,0.02,1.699c0.093,2.574,1.3,3.86,3.62,3.86c1,0,1.8-0.207,2.4-0.62c0.6-0.413,1.013-1.127,1.24-2.14
							c0.04-0.16,0.1-0.273,0.18-0.34c0.08-0.067,0.187-0.101,0.32-0.101h1c0.12,0,0.223,0.037,0.31,0.11
							c0.086,0.073,0.13,0.17,0.13,0.29c-0.04,0.773-0.27,1.5-0.69,2.18s-1.043,1.23-1.87,1.65s-1.833,0.63-3.02,0.63
							C756.735,340.072,755.385,339.589,754.458,338.622z"/>
						<path class="st4" d="M766.519,327.382c-0.087-0.086-0.13-0.196-0.13-0.33v-1.04c0-0.133,0.043-0.246,0.13-0.34
							c0.086-0.093,0.196-0.14,0.33-0.14h1.18c0.133,0,0.247,0.047,0.34,0.14c0.093,0.094,0.14,0.207,0.14,0.34v1.04
							c0,0.134-0.047,0.244-0.14,0.33c-0.093,0.087-0.207,0.13-0.34,0.13h-1.18C766.715,327.512,766.605,327.469,766.519,327.382z
							 M766.678,339.742c-0.087-0.087-0.13-0.196-0.13-0.33v-9.48c0-0.133,0.043-0.243,0.13-0.329
							c0.087-0.087,0.197-0.131,0.33-0.131h0.88c0.133,0,0.243,0.044,0.33,0.131c0.086,0.086,0.13,0.196,0.13,0.329v9.48
							c0,0.134-0.043,0.243-0.13,0.33c-0.087,0.087-0.197,0.13-0.33,0.13h-0.88C766.875,339.872,766.765,339.829,766.678,339.742z"
							/>
						<path class="st4" d="M771.478,339.742c-0.087-0.087-0.13-0.196-0.13-0.33v-9.46c0-0.133,0.043-0.247,0.13-0.34
							c0.087-0.094,0.197-0.141,0.33-0.141h0.84c0.147,0,0.263,0.044,0.35,0.131c0.086,0.086,0.13,0.203,0.13,0.35v0.88
							c0.547-0.906,1.473-1.36,2.78-1.36h0.78c0.146,0,0.26,0.04,0.34,0.12c0.08,0.08,0.12,0.193,0.12,0.34v0.74
							c0,0.134-0.04,0.243-0.12,0.33c-0.08,0.087-0.194,0.13-0.34,0.13h-1.14c-0.733,0-1.31,0.214-1.73,0.641
							c-0.42,0.427-0.63,1.007-0.63,1.739v5.9c0,0.134-0.047,0.243-0.14,0.33c-0.094,0.087-0.207,0.13-0.34,0.13h-0.9
							C771.675,339.872,771.565,339.829,771.478,339.742z"/>
						<path class="st4" d="M779.488,338.862c-0.8-0.807-1.22-1.937-1.26-3.391l-0.02-0.8l0.02-0.8c0.04-1.453,0.46-2.583,1.26-3.39
							c0.8-0.807,1.913-1.21,3.34-1.21c0.96,0,1.77,0.17,2.43,0.51c0.66,0.34,1.153,0.764,1.48,1.27
							c0.327,0.507,0.503,1.014,0.53,1.521c0.013,0.12-0.03,0.227-0.13,0.319c-0.1,0.094-0.21,0.141-0.33,0.141h-0.88
							c-0.133,0-0.233-0.03-0.3-0.09c-0.067-0.061-0.133-0.17-0.2-0.33c-0.24-0.653-0.57-1.117-0.99-1.391
							c-0.42-0.272-0.95-0.409-1.59-0.409c-0.84,0-1.507,0.26-2,0.779c-0.494,0.521-0.76,1.313-0.8,2.38l-0.02,0.7l0.02,0.7
							c0.04,1.066,0.307,1.86,0.8,2.38c0.493,0.521,1.16,0.78,2,0.78c0.653,0,1.187-0.137,1.6-0.41
							c0.414-0.273,0.74-0.736,0.98-1.39c0.067-0.16,0.133-0.271,0.2-0.33c0.066-0.061,0.167-0.09,0.3-0.09h0.88
							c0.12,0,0.23,0.047,0.33,0.14c0.1,0.094,0.143,0.2,0.13,0.32c-0.027,0.493-0.204,0.993-0.53,1.5s-0.82,0.933-1.48,1.279
							c-0.66,0.347-1.47,0.521-2.43,0.521C781.401,340.072,780.288,339.669,779.488,338.862z"/>
						<path class="st4" d="M790.608,338.842c-0.693-0.819-1.04-1.91-1.04-3.27v-5.641c0-0.133,0.043-0.243,0.13-0.329
							c0.087-0.087,0.197-0.131,0.33-0.131h0.92c0.133,0,0.243,0.044,0.33,0.131c0.087,0.086,0.13,0.196,0.13,0.329v5.54
							c0,2.027,0.88,3.04,2.64,3.04c0.853,0,1.53-0.27,2.03-0.81s0.75-1.283,0.75-2.23v-5.54c0-0.133,0.043-0.243,0.13-0.329
							c0.086-0.087,0.196-0.131,0.33-0.131h0.92c0.133,0,0.243,0.044,0.33,0.131c0.086,0.086,0.13,0.196,0.13,0.329v9.48
							c0,0.134-0.043,0.243-0.13,0.33c-0.087,0.087-0.197,0.13-0.33,0.13h-0.86c-0.134,0-0.244-0.043-0.33-0.13
							c-0.087-0.087-0.13-0.196-0.13-0.33v-0.9c-0.387,0.521-0.84,0.91-1.36,1.17c-0.52,0.261-1.18,0.391-1.98,0.391
							C792.281,340.072,791.301,339.662,790.608,338.842z"/>
						<path class="st4" d="M801.798,339.742c-0.087-0.087-0.13-0.196-0.13-0.33v-9.48c0-0.133,0.043-0.243,0.13-0.329
							c0.087-0.087,0.197-0.131,0.33-0.131h0.84c0.133,0,0.24,0.044,0.32,0.131c0.08,0.086,0.12,0.196,0.12,0.329v0.681
							c0.72-0.894,1.693-1.34,2.92-1.34c1.466,0,2.506,0.613,3.12,1.84c0.32-0.561,0.777-1.007,1.37-1.34
							c0.593-0.334,1.257-0.5,1.99-0.5c1.093,0,1.986,0.373,2.68,1.119c0.693,0.747,1.04,1.827,1.04,3.24v5.78
							c0,0.134-0.043,0.243-0.13,0.33c-0.087,0.087-0.197,0.13-0.33,0.13h-0.86c-0.133,0-0.244-0.043-0.33-0.13
							c-0.087-0.087-0.13-0.196-0.13-0.33v-5.6c0-1.067-0.22-1.83-0.66-2.29s-1.02-0.69-1.74-0.69c-0.64,0-1.19,0.237-1.65,0.71
							c-0.46,0.474-0.69,1.23-0.69,2.271v5.6c0,0.134-0.043,0.243-0.13,0.33c-0.087,0.087-0.197,0.13-0.33,0.13h-0.88
							c-0.133,0-0.244-0.043-0.33-0.13c-0.087-0.087-0.13-0.196-0.13-0.33v-5.6c0-1.054-0.23-1.813-0.69-2.28s-1.03-0.7-1.71-0.7
							c-0.64,0-1.19,0.233-1.65,0.7c-0.46,0.467-0.69,1.22-0.69,2.26v5.62c0,0.134-0.043,0.243-0.13,0.33
							c-0.087,0.087-0.197,0.13-0.33,0.13h-0.88C801.995,339.872,801.885,339.829,801.798,339.742z"/>
						<path class="st4" d="M820.438,339.742c-0.087-0.087-0.13-0.196-0.13-0.33v-8.4h-1.72c-0.133,0-0.243-0.04-0.33-0.12
							c-0.087-0.079-0.13-0.187-0.13-0.319v-0.641c0-0.133,0.043-0.243,0.13-0.329c0.086-0.087,0.196-0.131,0.33-0.131h1.72v-1
							c0-1.08,0.263-1.916,0.79-2.51c0.526-0.593,1.39-0.89,2.59-0.89h1.18c0.133,0,0.243,0.043,0.33,0.13
							c0.086,0.087,0.13,0.197,0.13,0.33v0.64c0,0.134-0.043,0.24-0.13,0.32c-0.087,0.08-0.197,0.12-0.33,0.12h-1.14
							c-0.613,0-1.04,0.16-1.28,0.479c-0.24,0.32-0.36,0.813-0.36,1.48v0.899h2.58c0.133,0,0.243,0.044,0.33,0.131
							c0.086,0.086,0.13,0.196,0.13,0.329v0.641c0,0.133-0.043,0.24-0.13,0.319c-0.087,0.08-0.197,0.12-0.33,0.12h-2.58v8.4
							c0,0.134-0.043,0.243-0.13,0.33c-0.087,0.087-0.197,0.13-0.33,0.13h-0.86C820.634,339.872,820.524,339.829,820.438,339.742z"
							/>
						<path class="st4" d="M827.567,338.802c-0.813-0.847-1.26-2.003-1.34-3.47l-0.02-0.68l0.02-0.66
							c0.08-1.44,0.526-2.587,1.34-3.44c0.813-0.853,1.9-1.279,3.26-1.279c1.466,0,2.603,0.467,3.41,1.399
							c0.807,0.934,1.21,2.2,1.21,3.8v0.36c0,0.134-0.043,0.243-0.13,0.33s-0.197,0.13-0.33,0.13h-6.94v0.18
							c0.04,0.867,0.307,1.607,0.8,2.221c0.493,0.613,1.146,0.92,1.96,0.92c0.626,0,1.136-0.123,1.53-0.37
							c0.393-0.247,0.69-0.503,0.89-0.771c0.12-0.159,0.213-0.256,0.28-0.29c0.067-0.032,0.18-0.05,0.34-0.05h0.88
							c0.12,0,0.223,0.033,0.31,0.101c0.086,0.066,0.13,0.153,0.13,0.26c0,0.293-0.18,0.646-0.54,1.06
							c-0.36,0.414-0.87,0.771-1.53,1.07c-0.66,0.3-1.417,0.45-2.27,0.45C829.467,340.072,828.381,339.649,827.567,338.802z
							 M833.627,333.932v-0.06c0-0.934-0.253-1.693-0.76-2.28c-0.507-0.586-1.187-0.88-2.04-0.88c-0.867,0-1.547,0.294-2.04,0.88
							c-0.494,0.587-0.74,1.347-0.74,2.28v0.06H833.627z"/>
						<path class="st4" d="M838.017,339.742c-0.087-0.087-0.13-0.196-0.13-0.33v-9.46c0-0.133,0.043-0.247,0.13-0.34
							c0.087-0.094,0.197-0.141,0.33-0.141h0.84c0.147,0,0.263,0.044,0.35,0.131c0.086,0.086,0.13,0.203,0.13,0.35v0.88
							c0.547-0.906,1.473-1.36,2.78-1.36h0.78c0.146,0,0.26,0.04,0.34,0.12c0.08,0.08,0.12,0.193,0.12,0.34v0.74
							c0,0.134-0.04,0.243-0.12,0.33c-0.08,0.087-0.194,0.13-0.34,0.13h-1.14c-0.733,0-1.31,0.214-1.73,0.641
							c-0.42,0.427-0.63,1.007-0.63,1.739v5.9c0,0.134-0.047,0.243-0.14,0.33c-0.094,0.087-0.207,0.13-0.34,0.13h-0.9
							C838.214,339.872,838.104,339.829,838.017,339.742z"/>
						<path class="st4" d="M846.067,338.802c-0.813-0.847-1.26-2.003-1.34-3.47l-0.02-0.68l0.02-0.66
							c0.08-1.44,0.526-2.587,1.34-3.44c0.813-0.853,1.9-1.279,3.26-1.279c1.466,0,2.603,0.467,3.41,1.399
							c0.807,0.934,1.21,2.2,1.21,3.8v0.36c0,0.134-0.043,0.243-0.13,0.33s-0.197,0.13-0.33,0.13h-6.94v0.18
							c0.04,0.867,0.307,1.607,0.8,2.221c0.493,0.613,1.146,0.92,1.96,0.92c0.626,0,1.136-0.123,1.53-0.37
							c0.393-0.247,0.69-0.503,0.89-0.771c0.12-0.159,0.213-0.256,0.28-0.29c0.067-0.032,0.18-0.05,0.34-0.05h0.88
							c0.12,0,0.223,0.033,0.31,0.101c0.086,0.066,0.13,0.153,0.13,0.26c0,0.293-0.18,0.646-0.54,1.06
							c-0.36,0.414-0.87,0.771-1.53,1.07c-0.66,0.3-1.417,0.45-2.27,0.45C847.967,340.072,846.88,339.649,846.067,338.802z
							 M852.127,333.932v-0.06c0-0.934-0.253-1.693-0.76-2.28c-0.507-0.586-1.187-0.88-2.04-0.88c-0.867,0-1.547,0.294-2.04,0.88
							c-0.494,0.587-0.74,1.347-0.74,2.28v0.06H852.127z"/>
						<path class="st4" d="M856.517,339.742c-0.087-0.087-0.13-0.196-0.13-0.33v-9.48c0-0.133,0.043-0.243,0.13-0.329
							c0.087-0.087,0.197-0.131,0.33-0.131h0.86c0.147,0,0.26,0.04,0.34,0.12s0.12,0.193,0.12,0.34v0.881
							c0.4-0.493,0.863-0.874,1.39-1.141s1.183-0.399,1.97-0.399c1.28,0,2.273,0.409,2.98,1.229c0.707,0.82,1.06,1.903,1.06,3.25
							v5.66c0,0.134-0.043,0.243-0.13,0.33s-0.197,0.13-0.33,0.13h-0.92c-0.133,0-0.243-0.043-0.33-0.13
							c-0.087-0.087-0.13-0.196-0.13-0.33v-5.54c0-0.96-0.233-1.707-0.7-2.24c-0.467-0.533-1.134-0.8-2-0.8
							c-0.854,0-1.534,0.271-2.04,0.81c-0.507,0.54-0.76,1.284-0.76,2.23v5.54c0,0.134-0.043,0.243-0.13,0.33
							c-0.087,0.087-0.197,0.13-0.33,0.13h-0.92C856.714,339.872,856.604,339.829,856.517,339.742z"/>
						<path class="st4" d="M869.287,338.862c-0.8-0.807-1.22-1.937-1.26-3.391l-0.02-0.8l0.02-0.8c0.04-1.453,0.46-2.583,1.26-3.39
							c0.8-0.807,1.913-1.21,3.34-1.21c0.96,0,1.77,0.17,2.43,0.51c0.66,0.34,1.153,0.764,1.48,1.27
							c0.327,0.507,0.503,1.014,0.53,1.521c0.013,0.12-0.03,0.227-0.13,0.319c-0.1,0.094-0.21,0.141-0.33,0.141h-0.88
							c-0.133,0-0.233-0.03-0.3-0.09c-0.067-0.061-0.133-0.17-0.2-0.33c-0.24-0.653-0.57-1.117-0.99-1.391
							c-0.42-0.272-0.95-0.409-1.59-0.409c-0.84,0-1.507,0.26-2,0.779c-0.494,0.521-0.76,1.313-0.8,2.38l-0.02,0.7l0.02,0.7
							c0.04,1.066,0.307,1.86,0.8,2.38c0.493,0.521,1.16,0.78,2,0.78c0.653,0,1.187-0.137,1.6-0.41
							c0.414-0.273,0.74-0.736,0.98-1.39c0.067-0.16,0.133-0.271,0.2-0.33c0.066-0.061,0.167-0.09,0.3-0.09h0.88
							c0.12,0,0.23,0.047,0.33,0.14c0.1,0.094,0.143,0.2,0.13,0.32c-0.027,0.493-0.204,0.993-0.53,1.5s-0.82,0.933-1.48,1.279
							c-0.66,0.347-1.47,0.521-2.43,0.521C871.2,340.072,870.087,339.669,869.287,338.862z"/>
						<path class="st4" d="M880.327,338.802c-0.813-0.847-1.26-2.003-1.34-3.47l-0.02-0.68l0.02-0.66
							c0.08-1.44,0.526-2.587,1.34-3.44c0.813-0.853,1.9-1.279,3.26-1.279c1.466,0,2.603,0.467,3.41,1.399
							c0.807,0.934,1.21,2.2,1.21,3.8v0.36c0,0.134-0.043,0.243-0.13,0.33s-0.197,0.13-0.33,0.13h-6.94v0.18
							c0.04,0.867,0.307,1.607,0.8,2.221c0.493,0.613,1.146,0.92,1.96,0.92c0.626,0,1.136-0.123,1.53-0.37
							c0.393-0.247,0.69-0.503,0.89-0.771c0.12-0.159,0.213-0.256,0.28-0.29c0.067-0.032,0.18-0.05,0.34-0.05h0.88
							c0.12,0,0.223,0.033,0.31,0.101c0.086,0.066,0.13,0.153,0.13,0.26c0,0.293-0.18,0.646-0.54,1.06
							c-0.36,0.414-0.87,0.771-1.53,1.07c-0.66,0.3-1.417,0.45-2.27,0.45C882.227,340.072,881.14,339.649,880.327,338.802z
							 M886.387,333.932v-0.06c0-0.934-0.253-1.693-0.76-2.28c-0.507-0.586-1.187-0.88-2.04-0.88c-0.867,0-1.547,0.294-2.04,0.88
							c-0.494,0.587-0.74,1.347-0.74,2.28v0.06H886.387z"/>
						<path class="st4" d="M888.916,342.922c-0.087-0.087-0.13-0.196-0.13-0.33v-0.66c0-0.119,0.04-0.223,0.12-0.31
							s0.173-0.13,0.28-0.13c0.747-0.014,1.336-0.271,1.77-0.771c0.433-0.5,0.743-1.31,0.93-2.43c0.187-1.12,0.28-2.653,0.28-4.6
							c0-1.947-0.093-3.477-0.28-4.59c-0.187-1.113-0.497-1.921-0.93-2.421c-0.434-0.5-1.023-0.756-1.77-0.77
							c-0.107,0-0.2-0.043-0.28-0.13s-0.12-0.19-0.12-0.311v-0.659c0-0.134,0.043-0.243,0.13-0.33s0.19-0.13,0.31-0.13
							c1.146,0,2.057,0.323,2.73,0.97s1.157,1.646,1.45,3c0.293,1.354,0.44,3.144,0.44,5.37s-0.147,4.02-0.44,5.38
							c-0.293,1.359-0.777,2.363-1.45,3.01s-1.583,0.97-2.73,0.97C889.106,343.052,889.003,343.009,888.916,342.922z"/>
					</g>
				</g>
			</g>
			<g>
				<g id="MTEXT_60_">
					<g>
						<path class="st4" d="M562.641,565.218c-0.714-0.306-1.269-0.747-1.665-1.322c-0.396-0.576-0.594-1.248-0.594-2.017
							c0-0.708,0.177-1.329,0.531-1.863c0.354-0.533,0.831-0.944,1.431-1.232c-0.48-0.276-0.853-0.639-1.116-1.089
							c-0.264-0.45-0.396-0.981-0.396-1.594c0-1.044,0.39-1.868,1.17-2.475c0.78-0.605,1.806-0.909,3.078-0.909
							s2.295,0.301,3.069,0.9s1.161,1.428,1.161,2.483c0,0.601-0.132,1.125-0.396,1.575c-0.264,0.45-0.63,0.819-1.098,1.107
							c0.6,0.288,1.077,0.699,1.431,1.232c0.354,0.534,0.531,1.161,0.531,1.882c0,0.768-0.198,1.437-0.594,2.007
							s-0.951,1.008-1.665,1.313c-0.714,0.307-1.527,0.459-2.439,0.459C564.167,565.677,563.354,565.524,562.641,565.218z
							 M567.212,563.625c0.57-0.432,0.855-1.008,0.855-1.728c0-0.721-0.285-1.297-0.855-1.729s-1.281-0.647-2.133-0.647
							c-0.864,0-1.581,0.216-2.151,0.647c-0.57,0.432-0.855,1.008-0.855,1.729c0,0.72,0.285,1.296,0.855,1.728
							c0.57,0.432,1.287,0.648,2.151,0.648C565.932,564.273,566.643,564.057,567.212,563.625z M566.934,557.577
							c0.504-0.36,0.756-0.84,0.756-1.44c0-0.611-0.249-1.101-0.747-1.467s-1.119-0.549-1.863-0.549
							c-0.756,0-1.38,0.183-1.872,0.549c-0.492,0.366-0.738,0.855-0.738,1.467c0,0.612,0.246,1.102,0.738,1.468
							c0.492,0.366,1.116,0.549,1.872,0.549C565.812,558.129,566.43,557.938,566.934,557.577z"/>
						<path class="st4" d="M571.946,565.38c-0.078-0.078-0.117-0.177-0.117-0.297v-1.242c0-0.119,0.039-0.222,0.117-0.306
							s0.177-0.126,0.297-0.126h1.242c0.12,0,0.219,0.042,0.297,0.126s0.117,0.187,0.117,0.306v1.242
							c0,0.12-0.039,0.219-0.117,0.297s-0.177,0.117-0.297,0.117h-1.242C572.124,565.497,572.024,565.458,571.946,565.38z"/>
						<path class="st4" d="M578.58,565.38c-0.072-0.078-0.108-0.177-0.108-0.297v-10.152l-3.024,2.322
							c-0.084,0.072-0.174,0.108-0.27,0.108c-0.108,0-0.21-0.061-0.306-0.181l-0.432-0.558c-0.06-0.084-0.09-0.168-0.09-0.252
							c0-0.132,0.06-0.24,0.18-0.324l3.906-3.023c0.132-0.084,0.288-0.126,0.468-0.126h0.846c0.12,0,0.219,0.039,0.297,0.116
							c0.078,0.078,0.117,0.178,0.117,0.298v11.771c0,0.12-0.039,0.219-0.117,0.297s-0.177,0.117-0.297,0.117h-0.882
							C578.748,565.497,578.651,565.458,578.58,565.38z"/>
						<path class="st4" d="M584.447,565.191c-0.66-0.324-1.164-0.747-1.512-1.27c-0.349-0.521-0.534-1.083-0.558-1.683v-0.036
							c0-0.096,0.036-0.174,0.108-0.234c0.072-0.06,0.156-0.09,0.252-0.09h0.882c0.252,0,0.414,0.133,0.486,0.396
							c0.18,0.647,0.513,1.131,0.999,1.448c0.486,0.318,1.047,0.478,1.683,0.478c0.816,0,1.494-0.249,2.034-0.747
							s0.81-1.185,0.81-2.061c0-0.805-0.27-1.443-0.81-1.918c-0.54-0.474-1.218-0.711-2.034-0.711c-0.432,0-0.78,0.055-1.044,0.162
							c-0.264,0.108-0.534,0.265-0.81,0.469c-0.156,0.12-0.285,0.207-0.387,0.261c-0.102,0.054-0.213,0.081-0.333,0.081h-0.864
							c-0.108,0-0.204-0.039-0.288-0.117c-0.084-0.078-0.12-0.171-0.108-0.279l0.558-5.994c0.036-0.3,0.186-0.449,0.45-0.449h6.228
							c0.132,0,0.234,0.035,0.306,0.107c0.072,0.072,0.108,0.174,0.108,0.307v0.666c0,0.119-0.039,0.216-0.117,0.287
							c-0.078,0.072-0.177,0.108-0.297,0.108h-5.184l-0.324,3.618c0.576-0.408,1.35-0.612,2.322-0.612
							c0.804,0,1.536,0.159,2.196,0.478c0.66,0.317,1.185,0.782,1.575,1.395c0.39,0.612,0.585,1.338,0.585,2.178
							c0,0.889-0.195,1.653-0.585,2.295c-0.39,0.643-0.93,1.129-1.62,1.458c-0.69,0.33-1.479,0.495-2.367,0.495
							C585.887,565.677,585.107,565.515,584.447,565.191z"/>
						<path class="st4" d="M593.294,556.029c-0.054-0.072-0.069-0.162-0.045-0.271l0.396-2.52c0.048-0.348,0.216-0.522,0.504-0.522
							h1.152c0.083,0,0.153,0.03,0.207,0.09c0.054,0.061,0.081,0.133,0.081,0.217c0,0.12-0.018,0.216-0.054,0.288l-0.936,2.43
							c-0.06,0.132-0.126,0.231-0.198,0.297c-0.072,0.066-0.18,0.099-0.324,0.099h-0.558
							C593.423,556.137,593.349,556.101,593.294,556.029z M596.121,556.029c-0.054-0.072-0.069-0.162-0.045-0.271l0.396-2.52
							c0.048-0.348,0.216-0.522,0.504-0.522h1.152c0.084,0,0.153,0.03,0.207,0.09c0.054,0.061,0.081,0.133,0.081,0.217
							c0,0.12-0.018,0.216-0.054,0.288l-0.936,2.43c-0.061,0.132-0.126,0.231-0.198,0.297c-0.072,0.066-0.18,0.099-0.324,0.099
							h-0.558C596.25,556.137,596.175,556.101,596.121,556.029z"/>
						<path class="st4" d="M599.09,560.709c-0.078-0.072-0.117-0.168-0.117-0.288v-0.647c0-0.12,0.039-0.219,0.117-0.298
							c0.078-0.077,0.177-0.116,0.297-0.116h5.4c0.12,0,0.219,0.039,0.297,0.116c0.078,0.079,0.117,0.178,0.117,0.298v0.647
							c0,0.12-0.04,0.216-0.117,0.288c-0.078,0.072-0.177,0.108-0.297,0.108h-5.4C599.268,560.817,599.168,560.781,599.09,560.709z"
							/>
						<path class="st4" d="M609.71,565.218c-0.714-0.306-1.269-0.747-1.665-1.322c-0.396-0.576-0.594-1.248-0.594-2.017
							c0-0.708,0.177-1.329,0.531-1.863c0.354-0.533,0.831-0.944,1.431-1.232c-0.48-0.276-0.853-0.639-1.116-1.089
							c-0.264-0.45-0.396-0.981-0.396-1.594c0-1.044,0.39-1.868,1.17-2.475c0.78-0.605,1.806-0.909,3.078-0.909
							s2.295,0.301,3.069,0.9s1.161,1.428,1.161,2.483c0,0.601-0.132,1.125-0.396,1.575c-0.264,0.45-0.63,0.819-1.098,1.107
							c0.6,0.288,1.077,0.699,1.431,1.232c0.354,0.534,0.531,1.161,0.531,1.882c0,0.768-0.198,1.437-0.594,2.007
							s-0.951,1.008-1.665,1.313c-0.714,0.307-1.527,0.459-2.439,0.459C611.237,565.677,610.424,565.524,609.71,565.218z
							 M614.282,563.625c0.57-0.432,0.855-1.008,0.855-1.728c0-0.721-0.285-1.297-0.855-1.729s-1.281-0.647-2.133-0.647
							c-0.864,0-1.581,0.216-2.151,0.647c-0.57,0.432-0.855,1.008-0.855,1.729c0,0.72,0.285,1.296,0.855,1.728
							c0.57,0.432,1.287,0.648,2.151,0.648C613.001,564.273,613.712,564.057,614.282,563.625z M614.003,557.577
							c0.504-0.36,0.756-0.84,0.756-1.44c0-0.611-0.249-1.101-0.747-1.467s-1.119-0.549-1.863-0.549
							c-0.756,0-1.38,0.183-1.872,0.549c-0.492,0.366-0.738,0.855-0.738,1.467c0,0.612,0.246,1.102,0.738,1.468
							c0.492,0.366,1.116,0.549,1.872,0.549C612.881,558.129,613.499,557.938,614.003,557.577z"/>
						<path class="st4" d="M619.016,565.38c-0.078-0.078-0.117-0.177-0.117-0.297v-1.242c0-0.119,0.039-0.222,0.117-0.306
							s0.177-0.126,0.297-0.126h1.242c0.12,0,0.219,0.042,0.297,0.126s0.117,0.187,0.117,0.306v1.242
							c0,0.12-0.039,0.219-0.117,0.297s-0.177,0.117-0.297,0.117h-1.242C619.193,565.497,619.094,565.458,619.016,565.38z"/>
						<path class="st4" d="M625.073,565.218c-0.684-0.306-1.203-0.704-1.557-1.196s-0.543-1.002-0.567-1.53
							c0-0.108,0.036-0.195,0.108-0.261c0.072-0.066,0.162-0.1,0.27-0.1h0.81c0.132,0,0.24,0.027,0.324,0.081
							c0.083,0.054,0.15,0.159,0.198,0.315c0.156,0.611,0.495,1.044,1.017,1.296s1.137,0.378,1.845,0.378
							c0.864,0,1.551-0.207,2.061-0.621c0.51-0.414,0.765-1.005,0.765-1.773c0-1.464-0.894-2.195-2.682-2.195h-1.692
							c-0.12,0-0.219-0.039-0.297-0.117s-0.117-0.177-0.117-0.297v-0.468c0-0.181,0.066-0.336,0.198-0.469l3.51-3.888h-5.328
							c-0.12,0-0.219-0.036-0.297-0.108c-0.078-0.071-0.117-0.168-0.117-0.287v-0.648c0-0.132,0.039-0.237,0.117-0.315
							c0.078-0.077,0.177-0.116,0.297-0.116h7.128c0.132,0,0.237,0.039,0.315,0.116c0.078,0.078,0.117,0.184,0.117,0.315v0.594
							c0,0.133-0.061,0.271-0.18,0.414l-3.51,3.942h0.288c1.224,0.036,2.193,0.354,2.907,0.954c0.714,0.6,1.071,1.476,1.071,2.628
							c0,0.792-0.195,1.473-0.585,2.043c-0.39,0.57-0.933,1.008-1.629,1.313c-0.696,0.307-1.482,0.459-2.358,0.459
							C626.567,565.677,625.757,565.524,625.073,565.218z"/>
						<path class="st4" d="M636.17,565.38c-0.066-0.078-0.099-0.171-0.099-0.279c0-0.083,0.024-0.161,0.072-0.233l2.772-3.853
							c-0.288,0.072-0.624,0.108-1.008,0.108c-0.864-0.012-1.62-0.213-2.268-0.603c-0.648-0.391-1.143-0.9-1.485-1.53
							c-0.342-0.63-0.513-1.305-0.513-2.025c0-0.72,0.171-1.403,0.513-2.052c0.342-0.648,0.852-1.176,1.53-1.584
							c0.678-0.408,1.497-0.612,2.457-0.612c0.96,0,1.782,0.198,2.466,0.595c0.684,0.396,1.2,0.915,1.548,1.557
							s0.522,1.329,0.522,2.061c0,0.66-0.117,1.242-0.351,1.746c-0.234,0.504-0.543,1.026-0.927,1.566l-3.492,4.896
							c-0.084,0.108-0.165,0.195-0.243,0.262c-0.078,0.065-0.189,0.099-0.333,0.099h-0.9
							C636.323,565.497,636.236,565.458,636.17,565.38z M639.563,559.359c0.432-0.229,0.774-0.549,1.026-0.963
							s0.378-0.892,0.378-1.432c0-0.552-0.126-1.037-0.378-1.458c-0.252-0.42-0.594-0.744-1.026-0.972s-0.906-0.342-1.422-0.342
							c-0.504,0-0.969,0.114-1.395,0.342c-0.426,0.228-0.765,0.552-1.017,0.972c-0.252,0.421-0.378,0.906-0.378,1.458
							c0,0.54,0.126,1.018,0.378,1.432s0.588,0.734,1.008,0.963c0.42,0.228,0.888,0.342,1.404,0.342
							C638.657,559.701,639.131,559.587,639.563,559.359z"/>
						<path class="st4" d="M644.666,556.029c-0.054-0.072-0.069-0.162-0.045-0.271l0.396-2.52c0.048-0.348,0.216-0.522,0.504-0.522
							h1.152c0.083,0,0.153,0.03,0.207,0.09c0.054,0.061,0.081,0.133,0.081,0.217c0,0.12-0.018,0.216-0.054,0.288l-0.936,2.43
							c-0.06,0.132-0.126,0.231-0.198,0.297c-0.072,0.066-0.18,0.099-0.324,0.099h-0.558
							C644.794,556.137,644.72,556.101,644.666,556.029z M647.492,556.029c-0.054-0.072-0.069-0.162-0.045-0.271l0.396-2.52
							c0.048-0.348,0.216-0.522,0.504-0.522h1.152c0.084,0,0.153,0.03,0.207,0.09c0.054,0.061,0.081,0.133,0.081,0.217
							c0,0.12-0.018,0.216-0.054,0.288l-0.936,2.43c-0.061,0.132-0.126,0.231-0.198,0.297c-0.072,0.066-0.18,0.099-0.324,0.099
							h-0.558C647.621,556.137,647.546,556.101,647.492,556.029z"/>
						<path class="st4" d="M545.63,584.979c-0.078-0.078-0.117-0.177-0.117-0.297v-0.54c0-0.275,0.15-0.54,0.45-0.792l3.924-3.906
							c0.888-0.756,1.5-1.374,1.836-1.854s0.504-0.99,0.504-1.53c0-0.708-0.198-1.263-0.594-1.665
							c-0.396-0.401-0.972-0.603-1.728-0.603c-0.72,0-1.29,0.21-1.71,0.63s-0.678,0.984-0.774,1.691
							c-0.024,0.133-0.084,0.234-0.18,0.307s-0.192,0.107-0.288,0.107h-0.864c-0.108,0-0.198-0.035-0.27-0.107
							s-0.108-0.156-0.108-0.252c0.024-0.636,0.195-1.251,0.513-1.846c0.318-0.594,0.789-1.079,1.413-1.458
							c0.624-0.378,1.38-0.566,2.268-0.566c1.344,0,2.355,0.351,3.033,1.053c0.678,0.702,1.017,1.593,1.017,2.673
							c0,0.756-0.183,1.438-0.549,2.043c-0.366,0.606-0.939,1.245-1.719,1.917l-3.546,3.601h5.67c0.132,0,0.234,0.036,0.306,0.107
							c0.072,0.072,0.108,0.175,0.108,0.307v0.684c0,0.12-0.04,0.219-0.117,0.297c-0.078,0.078-0.177,0.117-0.297,0.117h-7.884
							C545.807,585.097,545.708,585.058,545.63,584.979z"/>
						<path class="st4" d="M557.438,583.918c-0.714-0.906-1.095-2.091-1.143-3.556l-0.018-1.548l0.018-1.602
							c0.036-1.452,0.417-2.631,1.143-3.537s1.857-1.359,3.393-1.359c1.548,0,2.685,0.453,3.411,1.359
							c0.726,0.906,1.107,2.085,1.143,3.537c0.012,0.336,0.018,0.87,0.018,1.602c0,0.708-0.006,1.225-0.018,1.548
							c-0.048,1.465-0.429,2.649-1.143,3.556c-0.714,0.906-1.851,1.358-3.411,1.358
							C559.284,585.276,558.152,584.824,557.438,583.918z M562.919,582.864c0.468-0.611,0.714-1.476,0.738-2.592
							c0.012-0.348,0.018-0.846,0.018-1.494c0-0.659-0.006-1.151-0.018-1.476c-0.024-1.104-0.273-1.965-0.747-2.583
							c-0.474-0.618-1.167-0.927-2.079-0.927c-0.912,0-1.602,0.309-2.07,0.927c-0.468,0.618-0.714,1.479-0.738,2.583l-0.018,1.476
							l0.018,1.494c0.024,1.116,0.27,1.98,0.738,2.592c0.468,0.612,1.158,0.918,2.07,0.918
							C561.755,583.782,562.452,583.477,562.919,582.864z"/>
						<path class="st4" d="M567.59,584.979c-0.078-0.078-0.117-0.177-0.117-0.297v-1.242c0-0.119,0.039-0.222,0.117-0.306
							s0.177-0.126,0.297-0.126h1.242c0.12,0,0.219,0.042,0.297,0.126s0.117,0.187,0.117,0.306v1.242
							c0,0.12-0.039,0.219-0.117,0.297s-0.177,0.117-0.297,0.117h-1.242C567.768,585.097,567.668,585.058,567.59,584.979z"/>
						<path class="st4" d="M572.648,584.979c-0.066-0.078-0.099-0.171-0.099-0.279l0.036-0.161l4.5-10.53h-5.94
							c-0.12,0-0.219-0.039-0.297-0.117c-0.078-0.078-0.117-0.177-0.117-0.297v-0.666c0-0.132,0.036-0.237,0.108-0.315
							c0.072-0.077,0.174-0.116,0.306-0.116h7.344c0.132,0,0.234,0.039,0.306,0.116c0.072,0.078,0.108,0.184,0.108,0.315v0.612
							c0,0.216-0.048,0.449-0.144,0.702l-4.446,10.403c-0.06,0.133-0.126,0.24-0.198,0.324c-0.072,0.084-0.174,0.126-0.306,0.126
							h-0.9C572.801,585.097,572.714,585.058,572.648,584.979z"/>
						<path class="st4" d="M580.119,580.309c-0.078-0.072-0.117-0.168-0.117-0.288v-0.647c0-0.12,0.039-0.219,0.117-0.298
							c0.078-0.077,0.177-0.116,0.297-0.116h5.4c0.12,0,0.219,0.039,0.297,0.116c0.078,0.079,0.117,0.178,0.117,0.298v0.647
							c0,0.12-0.04,0.216-0.117,0.288c-0.078,0.072-0.177,0.108-0.297,0.108h-5.4C580.296,580.417,580.197,580.381,580.119,580.309z
							"/>
						<path class="st4" d="M587.75,584.979c-0.078-0.078-0.117-0.177-0.117-0.297v-0.54c0-0.275,0.15-0.54,0.45-0.792l3.924-3.906
							c0.888-0.756,1.5-1.374,1.836-1.854s0.504-0.99,0.504-1.53c0-0.708-0.198-1.263-0.594-1.665
							c-0.396-0.401-0.972-0.603-1.728-0.603c-0.72,0-1.29,0.21-1.71,0.63s-0.678,0.984-0.774,1.691
							c-0.024,0.133-0.084,0.234-0.18,0.307s-0.192,0.107-0.288,0.107h-0.864c-0.108,0-0.198-0.035-0.27-0.107
							s-0.108-0.156-0.108-0.252c0.024-0.636,0.195-1.251,0.513-1.846c0.318-0.594,0.789-1.079,1.413-1.458
							c0.624-0.378,1.38-0.566,2.268-0.566c1.344,0,2.355,0.351,3.033,1.053c0.678,0.702,1.017,1.593,1.017,2.673
							c0,0.756-0.183,1.438-0.549,2.043c-0.366,0.606-0.939,1.245-1.719,1.917l-3.546,3.601h5.67c0.132,0,0.234,0.036,0.306,0.107
							c0.072,0.072,0.108,0.175,0.108,0.307v0.684c0,0.12-0.04,0.219-0.117,0.297c-0.078,0.078-0.177,0.117-0.297,0.117h-7.884
							C587.927,585.097,587.829,585.058,587.75,584.979z"/>
						<path class="st4" d="M601.944,584.979c-0.072-0.078-0.108-0.177-0.108-0.297V574.53l-3.024,2.322
							c-0.084,0.072-0.174,0.108-0.27,0.108c-0.108,0-0.21-0.061-0.306-0.181l-0.432-0.558c-0.06-0.084-0.09-0.168-0.09-0.252
							c0-0.132,0.06-0.24,0.18-0.324l3.906-3.023c0.132-0.084,0.288-0.126,0.468-0.126h0.846c0.12,0,0.219,0.039,0.297,0.116
							c0.078,0.078,0.117,0.178,0.117,0.298v11.771c0,0.12-0.039,0.219-0.117,0.297s-0.177,0.117-0.297,0.117h-0.882
							C602.112,585.097,602.016,585.058,601.944,584.979z"/>
						<path class="st4" d="M606.254,584.979c-0.078-0.078-0.117-0.177-0.117-0.297v-1.242c0-0.119,0.039-0.222,0.117-0.306
							s0.177-0.126,0.297-0.126h1.242c0.12,0,0.219,0.042,0.297,0.126s0.117,0.187,0.117,0.306v1.242
							c0,0.12-0.039,0.219-0.117,0.297s-0.177,0.117-0.297,0.117h-1.242C606.431,585.097,606.332,585.058,606.254,584.979z"/>
						<path class="st4" d="M612.311,584.817c-0.684-0.306-1.203-0.704-1.557-1.196s-0.543-1.002-0.567-1.53
							c0-0.108,0.036-0.195,0.108-0.261c0.072-0.066,0.162-0.1,0.27-0.1h0.81c0.132,0,0.24,0.027,0.324,0.081
							c0.083,0.054,0.15,0.159,0.198,0.315c0.156,0.611,0.495,1.044,1.017,1.296s1.137,0.378,1.845,0.378
							c0.864,0,1.551-0.207,2.061-0.621c0.51-0.414,0.765-1.005,0.765-1.773c0-1.464-0.894-2.195-2.682-2.195h-1.692
							c-0.12,0-0.219-0.039-0.297-0.117s-0.117-0.177-0.117-0.297v-0.468c0-0.181,0.066-0.336,0.198-0.469l3.51-3.888h-5.328
							c-0.12,0-0.219-0.036-0.297-0.108c-0.078-0.071-0.117-0.168-0.117-0.287v-0.648c0-0.132,0.039-0.237,0.117-0.315
							c0.078-0.077,0.177-0.116,0.297-0.116h7.128c0.132,0,0.237,0.039,0.315,0.116c0.078,0.078,0.117,0.184,0.117,0.315v0.594
							c0,0.133-0.061,0.271-0.18,0.414l-3.51,3.942h0.288c1.224,0.036,2.193,0.354,2.907,0.954c0.714,0.6,1.071,1.476,1.071,2.628
							c0,0.792-0.195,1.473-0.585,2.043c-0.39,0.57-0.933,1.008-1.629,1.313c-0.696,0.307-1.482,0.459-2.358,0.459
							C613.805,585.276,612.995,585.124,612.311,584.817z"/>
						<path class="st4" d="M626.693,584.188c-0.72-0.726-1.098-1.743-1.134-3.051l-0.018-0.72l0.018-0.721
							c0.036-1.308,0.414-2.324,1.134-3.051c0.72-0.726,1.722-1.089,3.006-1.089c0.864,0,1.593,0.153,2.187,0.459
							c0.594,0.306,1.038,0.688,1.332,1.143c0.294,0.457,0.453,0.912,0.477,1.368c0.012,0.108-0.027,0.204-0.117,0.288
							c-0.09,0.084-0.189,0.126-0.297,0.126h-0.792c-0.12,0-0.21-0.026-0.27-0.081c-0.06-0.054-0.12-0.152-0.18-0.297
							c-0.216-0.588-0.513-1.005-0.891-1.251s-0.855-0.369-1.431-0.369c-0.756,0-1.356,0.234-1.8,0.702
							c-0.444,0.468-0.684,1.183-0.72,2.143l-0.018,0.63l0.018,0.63c0.036,0.96,0.276,1.674,0.72,2.142
							c0.444,0.468,1.044,0.702,1.8,0.702c0.588,0,1.068-0.123,1.44-0.369s0.666-0.663,0.882-1.251
							c0.06-0.144,0.12-0.243,0.18-0.297s0.15-0.081,0.27-0.081h0.792c0.108,0,0.207,0.042,0.297,0.126
							c0.09,0.084,0.129,0.18,0.117,0.288c-0.024,0.444-0.183,0.895-0.477,1.35c-0.294,0.457-0.738,0.841-1.332,1.152
							c-0.594,0.312-1.323,0.468-2.187,0.468C628.415,585.276,627.413,584.914,626.693,584.188z"/>
						<path class="st4" d="M635.972,584.979c-0.078-0.078-0.117-0.177-0.117-0.297v-8.532c0-0.119,0.039-0.219,0.117-0.297
							s0.177-0.117,0.297-0.117h0.756c0.12,0,0.216,0.039,0.288,0.117c0.072,0.078,0.108,0.178,0.108,0.297v0.612
							c0.648-0.804,1.524-1.206,2.628-1.206c1.32,0,2.256,0.552,2.808,1.656c0.288-0.504,0.699-0.906,1.233-1.206
							c0.534-0.3,1.131-0.45,1.791-0.45c0.984,0,1.788,0.336,2.412,1.008c0.624,0.673,0.936,1.645,0.936,2.916v5.202
							c0,0.12-0.039,0.219-0.117,0.297s-0.177,0.117-0.297,0.117h-0.774c-0.12,0-0.219-0.039-0.297-0.117s-0.117-0.177-0.117-0.297
							v-5.04c0-0.96-0.198-1.646-0.594-2.061s-0.918-0.621-1.566-0.621c-0.576,0-1.071,0.213-1.485,0.639s-0.621,1.107-0.621,2.043
							v5.04c0,0.12-0.039,0.219-0.117,0.297s-0.177,0.117-0.297,0.117h-0.792c-0.12,0-0.219-0.039-0.297-0.117
							c-0.078-0.078-0.117-0.177-0.117-0.297v-5.04c0-0.947-0.207-1.632-0.621-2.052c-0.414-0.42-0.927-0.63-1.539-0.63
							c-0.576,0-1.071,0.21-1.485,0.63s-0.621,1.098-0.621,2.034v5.058c0,0.12-0.04,0.219-0.117,0.297
							c-0.078,0.078-0.177,0.117-0.297,0.117h-0.792C636.149,585.097,636.05,585.058,635.972,584.979z"/>
						<path class="st4" d="M565.61,606.687c-0.606-0.582-1.042-1.485-1.305-2.709c-0.264-1.225-0.396-2.838-0.396-4.842
							s0.132-3.615,0.396-4.833c0.264-1.219,0.699-2.118,1.305-2.7c0.605-0.582,1.425-0.873,2.457-0.873
							c0.12,0,0.219,0.039,0.297,0.117s0.117,0.177,0.117,0.297v0.594c0,0.108-0.036,0.201-0.108,0.279
							c-0.072,0.078-0.156,0.116-0.252,0.116c-0.684,0.013-1.218,0.243-1.602,0.693c-0.384,0.45-0.66,1.177-0.828,2.178
							c-0.168,1.003-0.252,2.38-0.252,4.132c0,1.764,0.083,3.146,0.252,4.148c0.168,1.002,0.444,1.729,0.828,2.178
							c0.384,0.45,0.918,0.682,1.602,0.693c0.096,0,0.18,0.039,0.252,0.117c0.072,0.078,0.108,0.171,0.108,0.278v0.595
							c0,0.119-0.039,0.219-0.117,0.297s-0.177,0.117-0.297,0.117C567.035,607.56,566.216,607.269,565.61,606.687z"/>
						<path class="st4" d="M570.443,604.58c-0.072-0.078-0.108-0.177-0.108-0.297v-11.754c0-0.132,0.036-0.237,0.108-0.315
							c0.072-0.077,0.168-0.116,0.288-0.116h4.068c1.812,0,3.12,0.404,3.924,1.215c0.804,0.81,1.218,2.031,1.242,3.663
							c0.012,0.348,0.018,0.815,0.018,1.403c0,0.589-0.006,1.062-0.018,1.422c-0.024,1.141-0.207,2.067-0.549,2.781
							s-0.879,1.245-1.611,1.593c-0.732,0.349-1.704,0.522-2.916,0.522h-4.158C570.611,604.697,570.516,604.658,570.443,604.58z
							 M574.799,603.203c0.84,0,1.509-0.117,2.007-0.351c0.498-0.234,0.857-0.601,1.08-1.099c0.222-0.497,0.345-1.173,0.369-2.024
							c0.024-0.721,0.036-1.17,0.036-1.351c0-0.191-0.012-0.636-0.036-1.332c-0.024-1.199-0.309-2.078-0.855-2.637
							c-0.546-0.558-1.443-0.837-2.691-0.837h-2.682v9.63H574.799z"/>
						<path class="st4" d="M582.458,593.456c-0.079-0.078-0.117-0.177-0.117-0.297v-0.936c0-0.12,0.039-0.223,0.117-0.307
							c0.078-0.084,0.177-0.126,0.297-0.126h1.062c0.12,0,0.222,0.042,0.306,0.126s0.126,0.187,0.126,0.307v0.936
							c0,0.12-0.042,0.219-0.126,0.297s-0.186,0.117-0.306,0.117h-1.062C582.635,593.573,582.536,593.534,582.458,593.456z
							 M582.602,604.58c-0.078-0.078-0.117-0.177-0.117-0.297v-8.532c0-0.119,0.039-0.219,0.117-0.297s0.177-0.117,0.297-0.117
							h0.792c0.12,0,0.219,0.039,0.297,0.117c0.078,0.078,0.117,0.178,0.117,0.297v8.532c0,0.12-0.04,0.219-0.117,0.297
							c-0.078,0.078-0.177,0.117-0.297,0.117h-0.792C582.779,604.697,582.68,604.658,582.602,604.58z"/>
						<path class="st4" d="M587.768,604.518c-0.498-0.24-0.894-0.567-1.188-0.981s-0.441-0.873-0.441-1.377
							c0-0.792,0.324-1.439,0.972-1.944c0.648-0.504,1.53-0.84,2.646-1.008l2.7-0.378v-0.521c0-1.236-0.714-1.854-2.142-1.854
							c-0.552,0-0.996,0.111-1.332,0.333c-0.336,0.223-0.582,0.483-0.738,0.783c-0.048,0.12-0.099,0.201-0.153,0.243
							c-0.054,0.042-0.129,0.062-0.225,0.062h-0.702c-0.108,0-0.201-0.038-0.279-0.117c-0.078-0.077-0.117-0.171-0.117-0.278
							c0-0.276,0.129-0.597,0.387-0.963c0.258-0.366,0.657-0.685,1.197-0.954c0.54-0.271,1.2-0.405,1.98-0.405
							c1.344,0,2.307,0.312,2.889,0.937c0.582,0.624,0.873,1.403,0.873,2.34v5.85c0,0.12-0.039,0.219-0.117,0.297
							s-0.177,0.117-0.297,0.117h-0.792c-0.12,0-0.216-0.039-0.288-0.117s-0.108-0.177-0.108-0.297v-0.792
							c-0.264,0.396-0.648,0.727-1.152,0.99c-0.504,0.264-1.152,0.396-1.944,0.396C588.809,604.877,588.266,604.757,587.768,604.518
							z M591.701,602.789c0.504-0.516,0.756-1.266,0.756-2.25v-0.504l-2.106,0.306c-0.864,0.12-1.518,0.324-1.962,0.612
							c-0.444,0.288-0.666,0.648-0.666,1.08c0,0.492,0.201,0.87,0.603,1.134c0.402,0.265,0.879,0.396,1.431,0.396
							C590.549,603.563,591.197,603.306,591.701,602.789z"/>
						<path class="st4" d="M596.822,604.58c-0.078-0.078-0.117-0.177-0.117-0.297v-8.532c0-0.119,0.039-0.219,0.117-0.297
							s0.177-0.117,0.297-0.117h0.756c0.12,0,0.216,0.039,0.288,0.117c0.072,0.078,0.108,0.178,0.108,0.297v0.612
							c0.648-0.804,1.524-1.206,2.628-1.206c1.32,0,2.256,0.552,2.808,1.656c0.288-0.504,0.699-0.906,1.233-1.206
							c0.534-0.3,1.131-0.45,1.791-0.45c0.984,0,1.788,0.336,2.412,1.008c0.624,0.673,0.936,1.645,0.936,2.916v5.202
							c0,0.12-0.039,0.219-0.117,0.297s-0.177,0.117-0.297,0.117h-0.774c-0.12,0-0.219-0.039-0.297-0.117s-0.117-0.177-0.117-0.297
							v-5.04c0-0.96-0.198-1.646-0.594-2.061s-0.918-0.621-1.566-0.621c-0.576,0-1.071,0.213-1.485,0.639s-0.621,1.107-0.621,2.043
							v5.04c0,0.12-0.039,0.219-0.117,0.297s-0.177,0.117-0.297,0.117h-0.792c-0.12,0-0.219-0.039-0.297-0.117
							c-0.078-0.078-0.117-0.177-0.117-0.297v-5.04c0-0.947-0.207-1.632-0.621-2.052c-0.414-0.42-0.927-0.63-1.539-0.63
							c-0.576,0-1.071,0.21-1.485,0.63s-0.621,1.098-0.621,2.034v5.058c0,0.12-0.04,0.219-0.117,0.297
							c-0.078,0.078-0.177,0.117-0.297,0.117h-0.792C596.999,604.697,596.9,604.658,596.822,604.58z"/>
						<path class="st4" d="M613.462,603.734c-0.732-0.762-1.134-1.803-1.206-3.123l-0.018-0.612l0.018-0.594
							c0.072-1.296,0.474-2.328,1.206-3.096c0.732-0.769,1.71-1.152,2.934-1.152c1.32,0,2.343,0.42,3.069,1.26
							c0.726,0.841,1.089,1.98,1.089,3.42v0.324c0,0.12-0.039,0.219-0.117,0.297c-0.078,0.078-0.177,0.117-0.297,0.117h-6.246v0.162
							c0.036,0.78,0.276,1.446,0.72,1.998s1.032,0.828,1.764,0.828c0.564,0,1.023-0.111,1.377-0.333s0.621-0.453,0.801-0.693
							c0.108-0.144,0.192-0.23,0.252-0.261c0.06-0.03,0.162-0.045,0.306-0.045h0.792c0.108,0,0.201,0.03,0.279,0.09
							c0.078,0.061,0.117,0.138,0.117,0.234c0,0.264-0.162,0.582-0.486,0.953c-0.324,0.373-0.783,0.693-1.377,0.964
							c-0.594,0.27-1.275,0.404-2.043,0.404C615.172,604.877,614.194,604.496,613.462,603.734z M618.917,599.352v-0.055
							c0-0.84-0.228-1.523-0.684-2.052c-0.456-0.527-1.068-0.792-1.836-0.792c-0.78,0-1.392,0.265-1.836,0.792
							c-0.444,0.528-0.666,1.212-0.666,2.052v0.055H618.917z"/>
						<path class="st4" d="M623.507,601.547v-4.823h-1.422c-0.12,0-0.216-0.036-0.288-0.108c-0.072-0.072-0.108-0.168-0.108-0.288
							v-0.576c0-0.119,0.036-0.219,0.108-0.297c0.072-0.078,0.167-0.117,0.288-0.117h1.422v-3.006c0-0.119,0.036-0.219,0.108-0.297
							c0.072-0.078,0.168-0.117,0.288-0.117h0.792c0.12,0,0.219,0.039,0.297,0.117s0.117,0.178,0.117,0.297v3.006h2.232
							c0.12,0,0.219,0.039,0.297,0.117s0.117,0.178,0.117,0.297v0.576c0,0.12-0.039,0.216-0.117,0.288s-0.177,0.108-0.297,0.108
							h-2.232v4.697c0,0.612,0.099,1.074,0.297,1.387c0.198,0.312,0.537,0.468,1.017,0.468h1.098c0.12,0,0.216,0.039,0.288,0.117
							c0.072,0.078,0.108,0.177,0.108,0.297v0.594c0,0.12-0.036,0.219-0.108,0.297c-0.072,0.078-0.168,0.117-0.288,0.117h-1.224
							C624.437,604.697,623.507,603.647,623.507,601.547z"/>
						<path class="st4" d="M630.454,603.734c-0.732-0.762-1.134-1.803-1.206-3.123l-0.018-0.612l0.018-0.594
							c0.072-1.296,0.474-2.328,1.206-3.096c0.732-0.769,1.71-1.152,2.934-1.152c1.32,0,2.343,0.42,3.069,1.26
							c0.726,0.841,1.089,1.98,1.089,3.42v0.324c0,0.12-0.039,0.219-0.117,0.297c-0.078,0.078-0.177,0.117-0.297,0.117h-6.246v0.162
							c0.036,0.78,0.276,1.446,0.72,1.998s1.032,0.828,1.764,0.828c0.564,0,1.023-0.111,1.377-0.333s0.621-0.453,0.801-0.693
							c0.108-0.144,0.192-0.23,0.252-0.261c0.06-0.03,0.162-0.045,0.306-0.045h0.792c0.108,0,0.201,0.03,0.279,0.09
							c0.078,0.061,0.117,0.138,0.117,0.234c0,0.264-0.162,0.582-0.486,0.953c-0.324,0.373-0.783,0.693-1.377,0.964
							c-0.594,0.27-1.275,0.404-2.043,0.404C632.164,604.877,631.186,604.496,630.454,603.734z M635.908,599.352v-0.055
							c0-0.84-0.228-1.523-0.684-2.052c-0.456-0.527-1.068-0.792-1.836-0.792c-0.78,0-1.392,0.265-1.836,0.792
							c-0.444,0.528-0.666,1.212-0.666,2.052v0.055H635.908z"/>
						<path class="st4" d="M639.859,604.58c-0.078-0.078-0.117-0.177-0.117-0.297v-8.514c0-0.12,0.039-0.223,0.117-0.307
							c0.078-0.083,0.177-0.126,0.297-0.126h0.756c0.132,0,0.237,0.039,0.315,0.117s0.117,0.184,0.117,0.315v0.792
							c0.492-0.816,1.326-1.225,2.502-1.225h0.702c0.132,0,0.234,0.036,0.306,0.108c0.072,0.072,0.108,0.174,0.108,0.306v0.666
							c0,0.12-0.036,0.22-0.108,0.297c-0.072,0.078-0.174,0.117-0.306,0.117h-1.026c-0.66,0-1.179,0.192-1.557,0.576
							c-0.378,0.384-0.567,0.906-0.567,1.566v5.31c0,0.12-0.042,0.219-0.126,0.297s-0.186,0.117-0.306,0.117h-0.81
							C640.036,604.697,639.937,604.658,639.859,604.58z"/>
						<path class="st4" d="M645.007,607.442c-0.078-0.078-0.117-0.178-0.117-0.297v-0.595c0-0.107,0.036-0.2,0.108-0.278
							c0.072-0.078,0.156-0.117,0.252-0.117c0.672-0.012,1.203-0.243,1.593-0.693c0.39-0.449,0.669-1.179,0.837-2.187
							c0.167-1.008,0.252-2.388,0.252-4.14s-0.084-3.129-0.252-4.132c-0.168-1.001-0.447-1.728-0.837-2.178
							s-0.921-0.681-1.593-0.693c-0.096,0-0.18-0.038-0.252-0.116c-0.072-0.078-0.108-0.171-0.108-0.279v-0.594
							c0-0.12,0.039-0.219,0.117-0.297s0.171-0.117,0.279-0.117c1.032,0,1.851,0.291,2.457,0.873c0.605,0.582,1.041,1.481,1.305,2.7
							c0.264,1.218,0.396,2.829,0.396,4.833s-0.132,3.617-0.396,4.842c-0.264,1.224-0.699,2.127-1.305,2.709
							c-0.606,0.582-1.425,0.873-2.457,0.873C645.178,607.56,645.085,607.521,645.007,607.442z"/>
					</g>
				</g>
				<g>
					<g id="POLYLINE_1842_">
						<line class="st5" x1="660" y1="580.556" x2="682.534" y2="580.556"/>
						<line class="st5" x1="180.236" y1="580.556" x2="524" y2="580.556"/>
					</g>
					<g id="POLYLINE_1841_">
						<polyline class="st5" points="189.998,570.78 180.225,580.556 189.998,590.331 						"/>
					</g>
					<g id="POLYLINE_1840_">
						<polyline class="st5" points="674.313,590.331 684.087,580.556 674.313,570.78 						"/>
					</g>
				</g>
			</g>
		</g>
	</g>
</g>
<g id="N-TEXT">
</g>
<g id="_x32_D_x24_AG-DIAGRAM">
</g>
<g id="_x32_D_x24_AG-DETAILS">
</g>
<g id="_x32_D_x24_AG-SPORTS">
	<g id="POLYLINE_480_">
		<path class="st44" d="M680.002,294.999c0.035-84.287-42.686-163.231-113.268-209.302C505.218,45.449,428.528,34.36,358.131,55.537
			c-68.968,20.645-126.033,70.488-155.765,136.054c-29.821,65.525-29.822,141.292,0,206.817
			c30.361,66.95,89.162,117.416,159.944,137.268c69.29,19.536,144.181,8.042,204.424-31.375
			C637.315,458.23,680.038,379.287,680.002,294.999z"/>
	</g>
	<g id="POLYLINE_479_">
		<path class="st44" d="M272.031,479.991c39.01-49.482,113.156-134.125,155.131-182.696"/>
	</g>
	<g id="POLYLINE_478_">
		<line class="st44" x1="427.593" y1="295.638" x2="349.748" y2="67.897"/>
	</g>
	<g id="POLYLINE_451_">
		<path class="st44" d="M669.158,341.129c0.781,8.733,0.832,17.628,0.103,26.365"/>
	</g>
	<g id="POLYLINE_450_">
		<path class="st44" d="M427.162,297.295c61.862,11.457,179.401,33.232,241.996,43.833"/>
	</g>
	<g id="POLYLINE_449_">
		<path class="st44" d="M669.158,341.129c3.881-7.859,7.231-16.087,9.901-24.436"/>
	</g>
	<g id="POLYLINE_448_">
		<path class="st44" d="M272.031,479.991c3.017,5.813,7.656,10.563,12.572,14.807c6.849,5.875,14.576,10.975,22.296,15.637
			c11.896,7.116,24.882,13.633,37.463,19.455"/>
	</g>
	<g id="POLYLINE_447_">
		<path class="st44" d="M272.031,479.991c-15.474-7.829-29.224-19.06-40.164-32.502"/>
	</g>
	<g id="POLYLINE_446_">
		<path class="st44" d="M295.627,450.875c12.929,13.25,27.415,25.53,42.291,36.544c16.276,11.988,33.771,22.771,52.383,30.726
			c36.616,15.685,77.63,19.876,116.964,14.625"/>
	</g>
	<g id="POLYLINE_445_">
		<path class="st44" d="M361.112,373.533c16.453,12.826,34.119,24.411,52.624,34.057c22.002,11.472,45.437,20.47,69.288,27.268
			c17.191,4.863,35.337,8.892,52.993,11.606c16.566,2.49,33.57,3.681,50.284,2.163c19.338-1.725,38.589-7.027,54.269-18.859"/>
	</g>
	<g id="POLYLINE_444_">
		<path class="st44" d="M214.204,421.262c-4.004-9.786-6.152-20.473-5.378-31.059c0.533-7.399,2.389-14.696,4.904-21.658
			c4.821-13.337,12.242-25.678,20.552-37.117c6.937-9.509,14.825-19.02,22.558-27.899c13.02-14.859,27.322-29.223,42.373-42.03
			c28.688-24.425,61.541-44.2,96.119-59.09"/>
	</g>
	<g id="POLYLINE_443_">
		<path class="st44" d="M349.748,67.897c-18.229,2.572-36.146,7.843-52.89,15.486"/>
	</g>
	<g id="POLYLINE_442_">
		<path class="st44" d="M349.748,67.897c15.287-9.44,32.09-16.521,49.482-21.01"/>
	</g>
	<g id="POLYLINE_441_">
		<path class="st44" d="M528.506,316.038c5.982-54.539,0.462-110.427-16.215-162.704c-4.696-14.764-10.449-29.777-16.818-43.898
			c-4.263-9.404-9.035-18.881-14.725-27.505c-4.433-6.712-9.537-13.107-15.467-18.558c-8.844-8.145-19.488-14.268-30.775-18.345"/>
	</g>
	<g id="POLYLINE_440_">
		<path class="st44" d="M629.14,334.373c10.212-34.116,14.539-70.19,12.391-105.746c-1.172-19.154-4.118-38.453-10.118-56.716
			c-8.402-25.689-23.199-49.041-41.344-68.954"/>
	</g>
	<g id="POLYLINE_439_">
		<path class="st44" d="M185.218,244.084c8.808-22.719,21.361-44.226,38.122-62.003c11.424-12.183,24.564-22.849,38.374-32.212
			c10.645-7.18,21.975-13.884,33.451-19.636c21.379-10.759,44.487-18.75,67.358-25.695"/>
	</g>
</g>
<g id="_x32_D_x24_AG-OUTLINE">
	<g id="POLYLINE_1_">
		<path class="st63" d="M680.002,294.999c0.035-84.287-42.686-163.231-113.268-209.302C505.218,45.449,428.528,34.36,358.131,55.537
			c-68.968,20.645-126.033,70.488-155.765,136.054c-29.821,65.525-29.822,141.292,0,206.817
			c30.361,66.95,89.162,117.416,159.944,137.268c69.29,19.536,144.181,8.042,204.424-31.375
			C637.315,458.23,680.038,379.287,680.002,294.999z"/>
	</g>
</g>
</svg>
